<svg xmlns="http://www.w3.org/2000/svg" width="20" height="20" viewBox="0 0 20 20" fill="none">
    <g clip-path="url(#clip0_10876_21587)">
        <path fill-rule="evenodd" clip-rule="evenodd"
            d="M10.0002 14.2647C9.73495 14.2647 9.48059 14.1593 9.29306 13.9718C9.10552 13.7842 9.00016 13.5299 9.00016 13.2647C9.00016 12.9995 9.10552 12.7451 9.29306 12.5576C9.48059 12.37 9.73495 12.2647 10.0002 12.2647C10.2654 12.2647 10.5197 12.37 10.7073 12.5576C10.8948 12.7451 11.0002 12.9995 11.0002 13.2647C11.0002 13.5299 10.8948 13.7842 10.7073 13.9718C10.5197 14.1593 10.2654 14.2647 10.0002 14.2647ZM9.16683 6.06884C9.16683 5.84783 9.25463 5.63587 9.41091 5.47959C9.56719 5.32331 9.77915 5.23551 10.0002 5.23551C10.2212 5.23551 10.4331 5.32331 10.5894 5.47959C10.7457 5.63587 10.8335 5.84783 10.8335 6.06884V10.2355C10.8335 10.4565 10.7457 10.6685 10.5894 10.8248C10.4331 10.981 10.2212 11.0688 10.0002 11.0688C9.77915 11.0688 9.56719 10.981 9.41091 10.8248C9.25463 10.6685 9.16683 10.4565 9.16683 10.2355V6.06884ZM10.0002 0.833008C4.93766 0.833008 0.833496 4.93717 0.833496 9.99967C0.833496 15.063 4.93766 19.1663 10.0002 19.1663C15.0627 19.1663 19.1668 15.063 19.1668 9.99967C19.1668 4.93717 15.0627 0.833008 10.0002 0.833008Z"
            fill="#F84949" />
    </g>
    <defs>
        <clipPath id="clip0_10876_21587">
            <rect width="20" height="20" fill="white" />
        </clipPath>
    </defs>
</svg>