<svg xmlns="http://www.w3.org/2000/svg" width="49" height="49" viewBox="0 0 49 49" fill="none">
    <path fill-rule="evenodd" clip-rule="evenodd"
        d="M13.6111 10.5C12.786 10.5 11.9947 10.8278 11.4112 11.4112C10.8278 11.9947 10.5 12.786 10.5 13.6111V35.3889C10.5 36.214 10.8278 37.0053 11.4112 37.5888C11.9947 38.1722 12.786 38.5 13.6111 38.5H35.3889C36.214 38.5 37.0053 38.1722 37.5888 37.5888C38.1722 37.0053 38.5 36.214 38.5 35.3889V13.6111C38.5 12.786 38.1722 11.9947 37.5888 11.4112C37.0053 10.8278 36.214 10.5 35.3889 10.5H13.6111ZM32.2 21.0716C32.4919 20.7799 32.6559 20.3842 32.6561 19.9716C32.6562 19.5589 32.4925 19.1631 32.2008 18.8712C31.9091 18.5793 31.5134 18.4153 31.1008 18.4151C30.6881 18.415 30.2923 18.5788 30.0004 18.8704L22.3004 26.5704L19.0011 23.2711C18.8567 23.1266 18.6852 23.0119 18.4965 22.9337C18.3077 22.8554 18.1054 22.8151 17.9011 22.815C17.4885 22.8149 17.0927 22.9787 16.8008 23.2703C16.5089 23.562 16.3448 23.9577 16.3447 24.3703C16.3445 24.783 16.5083 25.1788 16.8 25.4707L21.0902 29.7609C21.2491 29.9199 21.4378 30.046 21.6454 30.132C21.8531 30.2181 22.0757 30.2623 22.3004 30.2623C22.5252 30.2623 22.7478 30.2181 22.9554 30.132C23.1631 30.046 23.3518 29.9199 23.5107 29.7609L32.2 21.0716Z"
        fill="url(#paint0_linear_10876_24487)" />
    <defs>
        <linearGradient id="paint0_linear_10876_24487" x1="10.5" y1="12.3529" x2="40.2209" y2="14.3298"
            gradientUnits="userSpaceOnUse">
            <stop stop-color="#00F2C6" />
            <stop offset="1" stop-color="#A5FFFD" />
        </linearGradient>
    </defs>
</svg>