<svg xmlns="http://www.w3.org/2000/svg" width="20" height="20" viewBox="0 0 20 20" fill="none">
  <g clip-path="url(#clip0_10876_27513)">
    <path fill-rule="evenodd" clip-rule="evenodd" d="M14.3393 8.51217L9.68683 13.1655C9.53009 13.3212 9.31815 13.4085 9.09725 13.4085C8.87634 13.4085 8.6644 13.3212 8.50766 13.1655L5.661 10.3188C5.58363 10.2415 5.52225 10.1496 5.48038 10.0485C5.43851 9.94744 5.41695 9.83909 5.41695 9.72967C5.41695 9.50869 5.50474 9.29676 5.661 9.14051C5.81725 8.98425 6.02918 8.89647 6.25016 8.89647C6.47114 8.89647 6.68307 8.98425 6.83933 9.14051L9.09683 11.398L13.161 7.33384C13.2384 7.25647 13.3302 7.1951 13.4313 7.15322C13.5324 7.11135 13.6407 7.0898 13.7502 7.0898C13.8596 7.0898 13.9679 7.11135 14.069 7.15322C14.1701 7.1951 14.262 7.25647 14.3393 7.33384C14.4167 7.41121 14.4781 7.50306 14.5199 7.60415C14.5618 7.70524 14.5834 7.81359 14.5834 7.92301C14.5834 8.03243 14.5618 8.14077 14.5199 8.24186C14.4781 8.34295 14.4167 8.4348 14.3393 8.51217ZM10.0002 0.833008C4.93766 0.833008 0.833496 4.93717 0.833496 9.99967C0.833496 15.0622 4.93766 19.1663 10.0002 19.1663C15.0627 19.1663 19.1668 15.0622 19.1668 9.99967C19.1668 4.93717 15.0627 0.833008 10.0002 0.833008Z" fill="#06FFD2"/>
  </g>
  <defs>
    <clipPath id="clip0_10876_27513">
      <rect width="20" height="20" fill="white"/>
    </clipPath>
  </defs>
</svg>