<svg width="926" height="50" viewBox="0 0 926 50" fill="none" xmlns="http://www.w3.org/2000/svg">
<g clip-path="url(#clip0_9087_13606)">
<path d="M0 48.2598L17.0154 0.780273H24.4034L41.4188 48.2698H34.7306L30.8417 37.1175H10.5771L6.68819 48.2698H0V48.2598ZM12.5566 31.3664H28.8722L19.8146 5.30118H21.5942L12.5466 31.3664H12.5566Z" fill="#33373F"/>
<path d="M71.3311 48.2598L58.0146 0.780273H64.5829L75.7299 42.5886H74.2003L85.7971 0.780273H92.3654L103.902 42.5886H102.313L113.52 0.780273H120.078L106.761 48.2698H99.8134L88.2165 6.65145H89.876L78.2792 48.2698H71.3311V48.2598Z" fill="#33373F"/>
<path d="M171.864 48.2598V0.780273H188.62C191.759 0.780273 194.528 1.37039 196.907 2.56063C199.287 3.75087 201.136 5.45121 202.456 7.66165C203.816 9.87209 204.495 12.4626 204.495 15.4332C204.495 18.7939 203.646 21.6344 201.946 23.9749C200.247 26.3154 197.957 27.9857 195.068 29.0059L206.095 48.2498H198.827L187.23 27.6656L191.369 30.0861H178.113V48.2498H171.864V48.2598ZM178.103 24.355H188.81C190.679 24.355 192.319 23.9949 193.718 23.2748C195.118 22.5546 196.208 21.5144 196.967 20.1541C197.777 18.7939 198.177 17.2236 198.177 15.4332C198.177 13.6428 197.777 12.0325 196.967 10.7123C196.208 9.35199 195.118 8.31178 193.718 7.59164C192.319 6.87149 190.679 6.51142 188.81 6.51142H178.103V24.355Z" fill="#33373F"/>
<path d="M208.724 48.2598V0.780273H214.972V27.4856L213.442 26.8455L236.126 0.780273H243.964L224.909 22.7747L225.229 18.3138L244.924 48.2698H237.466L222.43 25.7053L214.972 34.247V48.2698H208.724V48.2598Z" fill="#33373F"/>
<path d="M262.14 49.0296C259.121 49.0296 256.361 48.4795 253.852 47.3692C251.343 46.219 249.223 44.6687 247.474 42.7183C245.734 40.7679 244.475 38.5775 243.715 36.157L249.133 33.9265C250.283 36.9872 251.983 39.3476 254.232 40.998C256.521 42.6083 259.201 43.4184 262.26 43.4184C264.129 43.4184 265.769 43.1184 267.169 42.5283C268.568 41.9382 269.658 41.108 270.418 40.0378C271.227 38.9375 271.627 37.6573 271.627 36.217C271.627 34.2166 271.057 32.6463 269.908 31.4961C268.808 30.3058 267.169 29.4156 264.999 28.8155L256.271 26.135C252.832 25.0748 250.193 23.3944 248.374 21.104C246.544 18.8135 245.634 16.173 245.634 13.2024C245.634 10.6119 246.254 8.34143 247.484 6.38104C248.753 4.38064 250.503 2.83033 252.712 1.73011C254.962 0.57988 257.511 0.00976562 260.36 0.00976562C263.21 0.00976562 265.779 0.519868 268.068 1.54007C270.408 2.56028 272.377 3.94055 273.997 5.6809C275.606 7.38124 276.796 9.33163 277.566 11.5421L272.217 13.7725C271.197 11.092 269.668 9.08158 267.628 7.72131C265.589 6.32103 263.19 5.62089 260.43 5.62089C258.731 5.62089 257.221 5.92095 255.902 6.51107C254.622 7.06118 253.632 7.89134 252.902 9.00156C252.223 10.0618 251.883 11.342 251.883 12.8223C251.883 14.5627 252.432 16.113 253.542 17.4733C254.642 18.8335 256.321 19.8737 258.571 20.5939L266.539 22.9544C270.278 24.1046 273.107 25.7349 275.016 27.8653C276.926 29.9858 277.886 32.6263 277.886 35.7669C277.886 38.3574 277.206 40.6579 275.846 42.6483C274.527 44.6487 272.677 46.219 270.298 47.3692C267.958 48.4695 265.239 49.0296 262.14 49.0296Z" fill="#33373F"/>
<path d="M282.564 48.2598V0.780273H299.319C302.458 0.780273 305.228 1.37039 307.607 2.56063C309.986 3.75087 311.836 5.45121 313.155 7.66165C314.515 9.87209 315.195 12.4626 315.195 15.4332C315.195 18.4038 314.515 21.0043 313.155 23.2048C311.836 25.3752 309.986 27.0755 307.607 28.3058C305.268 29.496 302.508 30.0861 299.319 30.0861H288.802V48.2498H282.554L282.564 48.2598ZM288.812 24.355H299.519C301.429 24.355 303.088 23.9949 304.488 23.2748C305.887 22.5546 306.977 21.5144 307.737 20.1541C308.497 18.7939 308.887 17.2236 308.887 15.4332C308.887 13.6428 308.507 12.0325 307.737 10.7123C306.967 9.35199 305.887 8.31178 304.488 7.59164C303.088 6.87149 301.429 6.51142 299.519 6.51142H288.812V24.355Z" fill="#33373F"/>
<path d="M310.796 48.2598L327.811 0.780273H335.199L352.215 48.2698H345.527L341.638 37.1175H321.373L317.484 48.2698H310.796V48.2598ZM323.353 31.3664H339.668L330.621 5.30118H332.41L323.363 31.3664H323.353Z" fill="#33373F"/>
<path d="M373.669 49.0301C370.31 49.0301 367.211 48.44 364.361 47.2497C361.562 46.0195 359.093 44.2991 356.974 42.0887C354.894 39.8782 353.275 37.2877 352.125 34.3171C350.975 31.3465 350.405 28.0959 350.405 24.5652C350.405 21.0345 350.975 17.7238 352.125 14.7532C353.275 11.7826 354.884 9.1821 356.974 6.98166C359.053 4.77122 361.522 3.07088 364.361 1.88064C367.211 0.650397 370.31 0.0302734 373.669 0.0302734C377.028 0.0302734 379.867 0.600388 382.467 1.75062C385.096 2.90085 387.305 4.38114 389.095 6.21151C390.924 8.04188 392.214 9.99227 392.984 12.0727L387.245 14.6832C386.146 12.0527 384.416 9.92225 382.087 8.31193C379.747 6.6516 376.948 5.82143 373.679 5.82143C370.41 5.82143 367.411 6.61159 364.821 8.1819C362.272 9.75222 360.273 11.9427 358.833 14.7432C357.393 17.5438 356.664 20.8244 356.664 24.5552C356.664 28.2859 357.383 31.5066 358.833 34.3071C360.283 37.1077 362.272 39.2981 364.821 40.8684C367.411 42.4388 370.37 43.2289 373.679 43.2289C376.988 43.2289 379.757 42.4188 382.087 40.8084C384.426 39.1481 386.146 37.0077 387.245 34.3671L392.984 36.9777C392.224 39.0581 390.924 41.0185 389.095 42.8388C387.315 44.6692 385.106 46.1495 382.467 47.2997C379.877 48.45 376.948 49.0201 373.669 49.0201V49.0301Z" fill="#33373F"/>
<path d="M397.003 48.2598V0.780273H427.905V6.52142H403.241V21.5644H426.625V27.3056H403.241V42.5386H427.905V48.2798H397.003V48.2598Z" fill="#33373F"/>
<path d="M465.724 48.259V0.769531H495.806V6.51068H471.972V21.8738H493.576V27.6149H471.972V48.269H465.724V48.259Z" fill="#33373F"/>
<path d="M549.281 48.259V0.769531H566.037C569.186 0.769531 571.945 1.35965 574.324 2.54989C576.704 3.74013 578.553 5.44047 579.873 7.65091C581.233 9.86135 581.912 12.4519 581.912 15.4225C581.912 18.7831 581.063 21.6237 579.363 23.9642C577.664 26.3046 575.374 27.975 572.485 28.9952L583.512 48.239H576.244L564.647 27.6549L568.786 30.0754H555.53V48.239H549.281V48.259ZM555.53 24.3542H566.237C568.106 24.3542 569.746 23.9942 571.145 23.274C572.545 22.5539 573.635 21.5137 574.394 20.1534C575.204 18.7931 575.604 17.2228 575.604 15.4325C575.604 13.6421 575.204 12.0318 574.394 10.7115C573.625 9.35125 572.545 8.31104 571.145 7.5909C569.746 6.87075 568.106 6.51068 566.237 6.51068H555.53V24.3542Z" fill="#33373F"/>
<path d="M605.487 48.259V0.769531H611.736V48.259H605.487Z" fill="#33373F"/>
<path d="M617.833 48.259V0.769531H623.571L641.347 26.0746H638.417L656.073 0.769531H661.811V48.259H655.503V8.67111L657.732 9.37125L640.077 34.2262H639.567L622.102 9.37125L624.081 8.67111V48.249H617.833V48.259Z" fill="#33373F"/>
<path d="M667.891 48.259V0.769531H673.629L691.404 26.0746H688.475L706.13 0.769531H711.869V48.259H705.56V8.67111L707.79 9.37125L690.135 34.2262H689.625L672.159 9.37125L674.139 8.67111V48.249H667.891V48.259Z" fill="#33373F"/>
<path d="M717.937 48.259V0.769531H748.838V6.51068H724.175V21.5537H747.559V27.2948H724.175V42.5279H748.838V48.269H717.937V48.259Z" fill="#33373F"/>
<path d="M752.127 48.259V0.769531H768.892C772.032 0.769531 774.801 1.35965 777.18 2.54989C779.56 3.74013 781.409 5.44047 782.729 7.65091C784.088 9.86135 784.768 12.4519 784.768 15.4225C784.768 18.7831 783.918 21.6237 782.219 23.9642C780.519 26.3046 778.23 27.975 775.331 28.9952L786.358 48.239H779.09L767.493 27.6549L771.632 30.0754H758.375V48.239H752.127V48.259ZM758.365 24.3542H769.072C770.942 24.3542 772.581 23.9942 773.981 23.274C775.381 22.5539 776.47 21.5137 777.23 20.1534C778.04 18.7931 778.44 17.2228 778.44 15.4325C778.44 13.6421 778.04 12.0318 777.23 10.7115C776.47 9.35125 775.381 8.31104 773.981 7.5909C772.581 6.87075 770.942 6.51068 769.072 6.51068H758.365V24.3542Z" fill="#33373F"/>
<path d="M805.303 49.0198C802.284 49.0198 799.524 48.4697 797.015 47.3595C794.506 46.2092 792.386 44.6589 790.637 42.7085C788.897 40.7582 787.648 38.5677 786.878 36.1472L792.296 33.9168C793.446 36.9774 795.146 39.3379 797.395 40.9882C799.684 42.5985 802.364 43.4087 805.423 43.4087C807.292 43.4087 808.932 43.1086 810.332 42.5185C811.731 41.9284 812.821 41.0982 813.581 40.028C814.39 38.9278 814.79 37.6475 814.79 36.2072C814.79 34.2068 814.22 32.6365 813.071 31.4863C811.971 30.2961 810.332 29.4059 808.162 28.8058L799.435 26.1252C795.995 25.065 793.356 23.3847 791.537 21.0942C789.707 18.8038 788.797 16.1632 788.797 13.1926C788.797 10.6021 789.417 8.33167 790.647 6.37127C791.927 4.37087 793.666 2.82056 795.876 1.72034C798.125 0.570114 800.674 0 803.523 0C806.373 0 808.942 0.510102 811.231 1.53031C813.571 2.55051 815.54 3.93079 817.16 5.67113C818.779 7.37147 819.969 9.32186 820.729 11.5323L815.38 13.7628C814.36 11.0822 812.831 9.07181 810.791 7.71154C808.752 6.31126 806.353 5.61112 803.593 5.61112C801.894 5.61112 800.384 5.91118 799.065 6.5013C797.785 7.05141 796.795 7.88158 796.065 8.9918C795.386 10.052 795.046 11.3323 795.046 12.8126C795.046 14.5529 795.596 16.1032 796.705 17.4635C797.815 18.8238 799.485 19.864 801.744 20.5841L809.712 22.9446C813.451 24.0948 816.28 25.7251 818.189 27.8556C820.099 29.976 821.059 32.6165 821.059 35.7572C821.059 38.3477 820.379 40.6481 819.019 42.6385C817.7 44.6389 815.85 46.2092 813.471 47.3595C811.131 48.4597 808.412 49.0198 805.313 49.0198H805.303Z" fill="#33373F"/>
<path d="M825.718 48.259V0.769531H831.966V48.259H825.718Z" fill="#33373F"/>
<path d="M889.55 48.259V0.769531H894.778L922.051 39.1372L919.692 39.3873V0.769531H926V48.259H920.771L893.629 9.6313L895.798 9.38125V48.259H889.55Z" fill="#33373F"/>
<path d="M878.293 8.25148H878.303C868.885 -1.32044 853.62 -1.32044 844.202 8.24147C834.795 17.8034 834.795 33.2765 844.202 42.8284C853.62 52.3903 868.885 52.3903 878.303 42.8284C887.71 33.2665 887.71 17.7934 878.303 8.24147L878.293 8.25148ZM874.034 12.5823L869.785 16.8932L865.516 21.2141C867.876 23.6045 867.876 27.4753 865.516 29.8658L869.785 34.1867C870.145 33.8166 870.475 33.4265 870.785 33.0164C870.475 33.4165 870.155 33.8166 869.785 34.1767L874.034 38.4875C874.034 38.4875 874.034 38.4875 874.024 38.4975C866.966 45.659 855.519 45.659 848.461 38.4975V38.4775L852.71 34.1667C857.419 38.9376 865.056 38.9376 869.765 34.1667L865.496 29.8458C863.147 32.2363 859.328 32.2363 856.969 29.8458C854.619 27.4553 854.619 23.5845 856.969 21.1941C859.328 18.8036 863.137 18.8036 865.496 21.1941L869.765 16.8732C865.056 12.1022 857.419 12.1022 852.71 16.8732C850.95 18.6636 849.841 20.874 849.401 23.1845C849.841 20.864 850.94 18.6536 852.71 16.8632L848.451 12.5423C855.509 5.3909 866.956 5.3909 874.014 12.5423H874.004V12.5623L874.034 12.5823Z" fill="#33373F"/>
<path d="M160.157 7.161C150.739 -2.39091 135.473 -2.39091 126.056 7.161L126.076 7.18101C116.679 16.7329 116.689 32.206 126.096 41.7479L130.365 37.4271C123.307 30.2656 123.307 18.6433 130.365 11.4819L130.345 11.4619C137.403 4.32044 148.84 4.33044 155.898 11.4819C162.956 18.6433 162.956 30.2656 155.898 37.4271L160.167 41.7479C169.584 32.196 169.584 16.7129 160.167 7.161H160.157Z" fill="#33373F"/>
<path d="M151.699 15.8136C146.991 11.0426 139.353 11.0426 134.644 15.8136C129.935 20.5945 129.935 28.3361 134.644 33.117L138.903 28.7962C136.553 26.4057 136.553 22.5349 138.903 20.1444C141.252 17.754 145.081 17.754 147.43 20.1444C149.78 22.5349 149.78 26.4057 147.43 28.7962L151.689 33.117C156.398 28.3461 156.398 20.5945 151.689 15.8136H151.699Z" fill="#33373F"/>
<path d="M508.963 11.9019L504.694 7.58105C495.276 17.133 495.276 32.6161 504.694 42.178L508.963 37.8571C501.905 30.6957 501.905 19.0734 508.963 11.9119V11.9019Z" fill="#33373F"/>
<path d="M521.719 24.8644L517.481 20.5635C517.481 20.5635 517.491 20.5535 517.501 20.5435L513.232 16.2227C508.523 20.9936 508.523 28.7452 513.232 33.5261L517.501 29.2053C517.501 29.2053 517.491 29.1852 517.481 29.1752L521.719 24.8744V24.8644Z" fill="#33373F"/>
<path d="M521.72 24.8644L525.959 20.5635C525.959 20.5635 525.949 20.5535 525.939 20.5435L530.207 16.2227C534.916 20.9936 534.916 28.7452 530.207 33.5261L525.939 29.2053C525.939 29.2053 525.949 29.1852 525.959 29.1752L521.72 24.8744V24.8644Z" fill="#33373F"/>
<path d="M538.804 7.58129L534.535 11.9022C541.593 19.0636 541.593 30.6859 534.535 37.8473L538.804 42.1682C548.221 32.6163 548.221 17.1332 538.804 7.57129V7.58129Z" fill="#33373F"/>
</g>
<defs>
<clipPath id="clip0_9087_13606">
<rect width="926" height="50" fill="white"/>
</clipPath>
</defs>
</svg>
