<svg width="30" height="29" viewBox="0 0 30 29" fill="none" xmlns="http://www.w3.org/2000/svg">
<path fill-rule="evenodd" clip-rule="evenodd" d="M5.12663 4.95527C0.713649 9.22115 0.713649 16.137 5.12663 20.4029L7.79001 17.8283C4.84907 14.9854 4.84907 10.3728 7.79001 7.52987C10.731 4.68696 15.5026 4.68696 18.4435 7.52987L21.1066 4.95556C25.5193 9.22146 25.5192 16.1371 21.1063 20.4029C16.6933 24.6688 9.539 24.6688 5.12602 20.4029L2.46264 22.9775C8.34453 28.6663 17.8847 28.6663 23.7697 22.9775C29.6547 17.2916 29.6547 8.0695 23.7697 2.38065L21.1066 4.95497C16.6936 0.689389 9.53951 0.689489 5.12663 4.95527ZM15.781 15.2538C17.2531 13.8309 17.2531 11.5276 15.781 10.1046L18.4444 7.53001C21.3854 10.3729 21.3854 14.9855 18.4444 17.8284C15.5035 20.6713 10.7318 20.6713 7.7909 17.8284L10.4543 15.2538C11.9263 16.6768 14.309 16.6768 15.781 15.2538ZM10.4539 15.2539C8.98184 13.8309 8.98184 11.5276 10.4539 10.1047C11.9259 8.68169 14.3086 8.68169 15.7806 10.1047L13.1173 12.6793L10.4539 15.2539Z" fill="#06FFD2"/>
</svg>
