<svg width="115" height="35" viewBox="0 0 115 35" fill="none" xmlns="http://www.w3.org/2000/svg">
<path fill-rule="evenodd" clip-rule="evenodd" d="M0.0178223 33.6184V0.961914H4.83958L15.8969 16.2841L26.7567 0.961914H31.5784V33.6184H26.4498V10.2165L16.0611 24.4132H15.5351L5.19026 9.96801V33.6184H0.0178223ZM102.383 34.7081C100.542 34.7081 98.8618 34.3282 97.3422 33.5684C96.17 32.9708 95.2056 32.1653 94.4492 31.1518V34.1821H89.7151V0.999629H94.6684V13.1955C95.4206 12.3371 96.3265 11.6325 97.3861 11.0815C98.8472 10.3217 100.513 9.9418 102.383 9.9418C104.633 9.9418 106.65 10.4824 108.432 11.5637C110.244 12.6449 111.661 14.1207 112.684 15.9909C113.736 17.8612 114.262 19.9652 114.262 22.303C114.262 24.6409 113.736 26.7449 112.684 28.6152C111.661 30.4854 110.259 31.9758 108.476 33.0863C106.694 34.1675 104.663 34.7081 102.383 34.7081ZM101.901 30.1055C103.304 30.1055 104.546 29.7695 105.627 29.0973C106.708 28.4252 107.556 27.5047 108.169 26.3358C108.812 25.1377 109.134 23.7934 109.134 22.303C109.134 20.8127 108.812 19.483 108.169 18.3141C107.556 17.1452 106.708 16.2247 105.627 15.5526C104.546 14.8805 103.304 14.5444 101.901 14.5444C100.528 14.5444 99.2856 14.8805 98.1751 15.5526C97.0938 16.2247 96.2318 17.1452 95.5889 18.3141C94.9752 19.483 94.6684 20.8127 94.6684 22.303C94.6684 23.7934 94.9752 25.1377 95.5889 26.3358C96.2318 27.5047 97.0938 28.4252 98.1751 29.0973C99.2856 29.7695 100.528 30.1055 101.901 30.1055ZM79.7144 34.1822V10.4679H84.6676V34.1822H79.7144ZM79.7144 7.2242V1.52575H84.6676V7.2242H79.7144ZM64 10.4682V34.1825H68.9533V20.5062C68.9533 18.636 69.4501 17.2041 70.4436 16.2105C71.4664 15.1877 72.7961 14.6763 74.4325 14.6763H76.4927V10.1614H75.0462C73.4097 10.1614 72.007 10.512 70.8381 11.2134C69.9521 11.7229 69.2507 12.4842 68.7341 13.4974V10.4682H64ZM49.193 15.6981C51.112 17.5982 51.112 20.6738 49.193 22.574C47.2747 24.4733 44.1703 24.4741 42.251 22.5763L38.7804 26.0127C34.9464 22.2165 34.9464 16.0572 38.7804 12.2609C42.6134 8.46569 48.8317 8.46469 52.666 12.2579L56.1356 8.82243C61.8887 14.5188 61.8887 23.7538 56.1356 29.4501C50.3826 35.1465 41.0558 35.1465 35.3027 29.4501L38.7749 26.0122C42.6089 29.8084 48.8295 29.8084 52.6635 26.0122C56.4965 22.2169 56.4975 16.0599 52.6665 12.2634L49.1969 15.6989C47.2779 13.7987 44.1716 13.7987 42.2526 15.6989C40.3343 17.5982 40.3335 20.6721 42.2502 22.5724L45.7208 19.136L49.193 15.6981Z" fill="white"/>
</svg>
