<svg width="428" height="198" viewBox="0 0 428 198" fill="none" xmlns="http://www.w3.org/2000/svg">
<g filter="url(#filter0_d_8691_12875)">
<rect x="20" y="8" width="348" height="118" rx="10" fill="#181C22"/>
<rect x="20.5" y="8.5" width="347" height="117" rx="9.5" stroke="#868C93"/>
<g clip-path="url(#clip0_8691_12875)">
<path fill-rule="evenodd" clip-rule="evenodd" d="M45.5254 31.5938C45.0131 31.5938 44.5218 31.7973 44.1595 32.1595C43.7973 32.5218 43.5938 33.0131 43.5938 33.5254V47.0469C43.5938 47.5592 43.7973 48.0505 44.1595 48.4127C44.5218 48.775 45.0131 48.9785 45.5254 48.9785H59.0469C59.5592 48.9785 60.0505 48.775 60.4127 48.4127C60.775 48.0505 60.9785 47.5592 60.9785 47.0469V33.5254C60.9785 33.0131 60.775 32.5218 60.4127 32.1595C60.0505 31.7973 59.5592 31.5938 59.0469 31.5938H45.5254ZM45.5254 33.5254H59.0469V47.0469H45.5254V33.5254Z" fill="white"/>
</g>
<path d="M84.3584 32.9282C84.3487 35.1304 86.8225 37.3714 90.5673 37.8565L89.7135 39.6027C86.7352 39.1564 84.3681 37.6915 83.2234 35.7125C82.0786 37.6915 79.7212 39.1564 76.772 39.6027L75.9183 37.8565C79.6242 37.3714 82.0883 35.1498 82.0883 32.9282V32.0357H84.3584V32.9282ZM75.2198 42.9011V41.1161H91.2075V42.9011H84.242V49.013H82.1077V42.9011H75.2198ZM97.2612 32.2491C99.5313 32.2394 101.316 33.5491 101.753 35.4699H104.925V31.473H107.079V40.8833H104.925V37.2162H101.772C101.355 39.1855 99.5507 40.5146 97.2612 40.5146C94.5739 40.5146 92.6239 38.7878 92.6239 36.3624C92.6239 33.9662 94.5739 32.2394 97.2612 32.2491ZM94.6806 36.3624C94.6806 37.7691 95.7478 38.7005 97.2612 38.6908C98.7358 38.7005 99.7932 37.7691 99.8029 36.3624C99.7932 34.9558 98.7358 34.0438 97.2612 34.0535C95.7478 34.0438 94.6806 34.9558 94.6806 36.3624ZM95.5149 48.7995V41.6982H97.6492V43.5608H104.925V41.6982H107.079V48.7995H95.5149ZM97.6492 47.0533H104.925V45.2295H97.6492V47.0533ZM129.334 31.473V49.013H127.258V40.146H125.317V48.1204H123.3V31.8028H125.317V38.3803H127.258V31.473H129.334ZM115.034 44.6474V33.4909H117.207V42.7459C118.72 42.7168 120.37 42.581 122.213 42.222L122.426 44.1041C120.059 44.5213 118.051 44.6474 116.198 44.6474H115.034ZM147.436 39.9131V41.64H131.449V39.9131H135.174V37.6915C133.845 37.1289 133.098 36.246 133.098 35.1013C133.098 32.9961 135.552 31.764 139.423 31.764C143.284 31.764 145.739 32.9961 145.748 35.1013C145.739 36.2557 144.982 37.1386 143.653 37.6915V39.9131H147.436ZM133.311 45.8309C133.311 43.8131 135.591 42.6877 139.423 42.7071C143.197 42.6877 145.486 43.8131 145.496 45.8309C145.486 47.8682 143.197 48.9742 139.423 48.9742C135.591 48.9742 133.311 47.8682 133.311 45.8309ZM135.349 35.1013C135.329 36.1684 136.833 36.7408 139.423 36.7311C142.004 36.7408 143.517 36.1684 143.517 35.1013C143.517 34.0244 142.004 33.423 139.423 33.4327C136.833 33.423 135.329 34.0244 135.349 35.1013ZM135.504 45.8309C135.494 46.8205 136.872 47.354 139.423 47.3443C141.936 47.354 143.323 46.8205 143.342 45.8309C143.323 44.8511 141.936 44.3466 139.423 44.3369C136.872 44.3466 135.494 44.8511 135.504 45.8309ZM137.347 39.9131H141.499V38.2445C140.869 38.3318 140.17 38.3803 139.423 38.3803C138.676 38.3803 137.978 38.3318 137.347 38.2445V39.9131ZM168.023 31.473V41.8922H165.869V37.6042H162.881V35.8386H165.869V31.473H168.023ZM153.277 40.146C156.1 39.1758 157.584 36.8184 157.584 34.4998V34.364H153.936V32.6177H163.405V34.364H159.776V34.4804C159.776 36.6147 161.193 38.7684 163.909 39.6803L162.823 41.3877C160.873 40.728 159.495 39.3893 158.719 37.74C157.953 39.6027 156.488 41.1161 154.402 41.8534L153.277 40.146ZM156.129 45.6757C156.109 43.5705 158.389 42.3385 162.085 42.3385C165.801 42.3385 168.071 43.5705 168.081 45.6757C168.071 47.7809 165.801 49.0033 162.085 49.013C158.389 49.0033 156.109 47.7809 156.129 45.6757ZM158.263 45.6757C158.253 46.7623 159.65 47.354 162.085 47.3443C164.54 47.354 165.927 46.7623 165.927 45.6757C165.927 44.5795 164.54 43.9877 162.085 43.9877C159.65 43.9877 158.253 44.5795 158.263 45.6757ZM185.116 31.473V49.0324H182.982V31.473H185.116ZM171.457 34.752V33.0058H179.722V39.5833H173.688V43.1146C176.453 43.0952 178.83 42.9496 181.566 42.4937L181.76 44.2593C178.781 44.7735 176.162 44.8899 173.009 44.8802H171.476V37.8759H177.53V34.752H171.457ZM201.415 31.473V38.4579H204.111V40.243H201.415V49.013H199.28V31.473H201.415ZM187.58 35.8968V34.17H191.733V31.7252H193.886V34.17H197.922V35.8968H187.58ZM188.395 41.1743C188.376 38.749 190.258 37.0318 192.819 37.0415C195.341 37.0318 197.214 38.749 197.224 41.1743C197.214 43.5899 195.341 45.2877 192.819 45.2877C190.258 45.2877 188.376 43.5899 188.395 41.1743ZM190.452 41.1743C190.442 42.6004 191.442 43.5123 192.819 43.5026C194.168 43.5123 195.147 42.6004 195.167 41.1743C195.147 39.7482 194.168 38.8072 192.819 38.8072C191.442 38.8072 190.442 39.7482 190.452 41.1743ZM219.498 31.473V49.013H217.325V31.473H219.498ZM204.965 44.1817C209.564 41.9989 211.678 39.0303 212.067 35.0431H205.858V33.3356H214.259C214.259 38.5549 212.231 42.9884 206.091 45.9085L204.965 44.1817Z" fill="white"/>
<path d="M63.3241 69.6748H53.6659C52.9039 69.6748 52.2861 70.2925 52.2861 71.0545V78.6431C52.2861 79.4051 52.9039 80.0229 53.6659 80.0229H63.3241C64.0861 80.0229 64.7038 79.4051 64.7038 78.6431V71.0545C64.7038 70.2925 64.0861 69.6748 63.3241 69.6748Z" stroke="#A5A5A5" stroke-width="1.6143"/>
<path d="M52.2861 72.5714C52.2861 71.4004 52.2861 70.8156 52.6904 70.4517C53.0947 70.0879 53.7445 70.0879 55.0456 70.0879H61.9443C63.2454 70.0879 63.8953 70.0879 64.2996 70.4517C64.7038 70.8156 64.7038 71.4004 64.7038 72.5714H52.2861Z" fill="#A5A5A5"/>
<path d="M55.0459 67.6045V69.6741M61.9446 67.6045V69.6741" stroke="#A5A5A5" stroke-width="1.6143" stroke-linecap="round"/>
<path d="M81.0561 67.8995C83.8064 67.914 85.7855 69.2528 85.7855 71.2901C85.7855 73.2182 84.0684 74.4915 81.6091 74.6589V77.3728H87.0079V78.3333H75.1625V77.3728H80.4886V74.6589C78.0438 74.4843 76.3267 73.211 76.3267 71.2901C76.3267 69.2528 78.313 67.914 81.0561 67.8995ZM77.4327 71.2901C77.4254 72.7817 78.9606 73.7494 81.0561 73.7639C83.1516 73.7494 84.6795 72.7817 84.6795 71.2901C84.6795 69.8276 83.1516 68.8381 81.0561 68.8454C78.9606 68.8381 77.4254 69.8276 77.4327 71.2901ZM98.4748 70.1696V71.1155H89.6418V67.2738H90.7623V70.1696H98.4748ZM88.0265 73.3274V72.3961H99.8718V73.3274H88.0265ZM89.5108 75.3938V74.4915H98.3438V77.5184H90.6895V78.9008H98.8095V79.8176H89.5399V76.6452H97.2233V75.3938H89.5108Z" fill="#A5A5A5"/>
<g clip-path="url(#clip1_8691_12875)">
<g clip-path="url(#clip2_8691_12875)">
<path d="M58.4955 91.1992C62.6105 91.1992 65.9461 94.5349 65.9461 98.6498C65.9461 102.765 62.6105 106.1 58.4955 106.1C54.3806 106.1 51.0449 102.765 51.0449 98.6498C51.0449 94.5349 54.3806 91.1992 58.4955 91.1992ZM58.4955 92.6893C56.9147 92.6893 55.3986 93.3173 54.2808 94.4351C53.163 95.5529 52.535 97.069 52.535 98.6498C52.535 100.231 53.163 101.747 54.2808 102.865C55.3986 103.982 56.9147 104.61 58.4955 104.61C60.0764 104.61 61.5924 103.982 62.7102 102.865C63.828 101.747 64.456 100.231 64.456 98.6498C64.456 97.069 63.828 95.5529 62.7102 94.4351C61.5924 93.3173 60.0764 92.6893 58.4955 92.6893ZM58.4955 94.1795C58.678 94.1795 58.8542 94.2465 58.9905 94.3678C59.1269 94.489 59.214 94.6561 59.2354 94.8374L59.2406 94.9245V98.3414L61.2575 100.358C61.3911 100.492 61.4687 100.672 61.4745 100.861C61.4802 101.051 61.4138 101.235 61.2886 101.377C61.1634 101.519 60.9888 101.608 60.8004 101.626C60.612 101.644 60.4237 101.589 60.274 101.474L60.204 101.412L57.9688 99.1766C57.853 99.0607 57.7786 98.9099 57.7572 98.7474L57.7505 98.6498V94.9245C57.7505 94.7269 57.829 94.5374 57.9687 94.3977C58.1084 94.258 58.2979 94.1795 58.4955 94.1795Z" fill="#06FFD2"/>
</g>
</g>
<path d="M79.077 103.795C76.7414 103.795 75.3881 101.83 75.3954 98.3816C75.3881 94.9619 76.756 92.9683 79.077 92.9683C81.3908 92.9683 82.7587 94.9619 82.7587 98.3816C82.7587 101.83 81.4126 103.795 79.077 103.795ZM76.6614 98.3816C76.6687 101.11 77.5491 102.631 79.077 102.631C80.5977 102.631 81.4854 101.11 81.4781 98.3816C81.4854 95.6531 80.5904 94.1106 79.077 94.1033C77.5636 94.1106 76.6687 95.6531 76.6614 98.3816ZM88.1429 103.795C86.0474 103.795 84.5413 102.674 84.4758 101.001H85.8C85.8728 102.005 86.8696 102.631 88.1284 102.631C89.5181 102.631 90.5222 101.881 90.5294 100.783C90.5222 99.6331 89.6054 98.8254 87.9683 98.8182H87.1097V97.6686H87.9683C89.2489 97.6686 90.1438 96.9482 90.1365 95.8641C90.1438 94.8091 89.3725 94.1106 88.172 94.1033C87.0442 94.1106 86.0183 94.7291 85.9601 95.7622H84.6941C84.7596 94.0888 86.3166 92.9683 88.1866 92.9683C90.1947 92.9683 91.4171 94.2852 91.4025 95.7913C91.4171 96.9919 90.7186 97.865 89.6127 98.1779V98.2506C90.9878 98.4616 91.8173 99.4439 91.81 100.783C91.8173 102.514 90.2457 103.795 88.1429 103.795ZM94.604 102.252C94.0947 102.245 93.6581 101.823 93.6727 101.307C93.6581 100.797 94.0947 100.375 94.604 100.375C95.1206 100.375 95.5426 100.797 95.5353 101.307C95.5426 101.823 95.1206 102.245 94.604 102.252ZM93.6727 95.4567C93.6581 94.9473 94.0947 94.5253 94.604 94.5253C95.1206 94.5253 95.5426 94.9473 95.5353 95.4567C95.5426 95.9732 95.1206 96.3953 94.604 96.4025C94.0947 96.3953 93.6581 95.9732 93.6727 95.4567ZM101.211 93.1138V103.649H99.8863V94.4817H99.8281L97.267 96.1843V94.86L99.8863 93.1138H101.211ZM104.019 103.649L104.005 102.689L107.599 98.9055C108.843 97.5812 109.44 96.8682 109.447 95.8932C109.44 94.8091 108.538 94.1106 107.352 94.1033C106.093 94.1106 105.307 94.9037 105.3 96.0824H104.063C104.048 94.2197 105.489 92.9683 107.395 92.9683C109.309 92.9683 110.662 94.2561 110.669 95.8932C110.662 97.0719 110.116 97.9887 108.254 99.9096L105.838 102.398V102.485H110.859V103.649H104.019ZM113.667 102.252C113.158 102.245 112.721 101.823 112.736 101.307C112.721 100.797 113.158 100.375 113.667 100.375C114.184 100.375 114.606 100.797 114.598 101.307C114.606 101.823 114.184 102.245 113.667 102.252ZM112.736 95.4567C112.721 94.9473 113.158 94.5253 113.667 94.5253C114.184 94.5253 114.606 94.9473 114.598 95.4567C114.606 95.9732 114.184 96.3953 113.667 96.4025C113.158 96.3953 112.721 95.9732 112.736 95.4567ZM116.548 103.649L116.534 102.689L120.128 98.9055C121.372 97.5812 121.969 96.8682 121.976 95.8932C121.969 94.8091 121.067 94.1106 119.881 94.1033C118.622 94.1106 117.836 94.9037 117.829 96.0824H116.592C116.577 94.2197 118.018 92.9683 119.924 92.9683C121.838 92.9683 123.191 94.2561 123.199 95.8932C123.191 97.0719 122.646 97.9887 120.783 99.9096L118.367 102.398V102.485H123.388V103.649H116.548ZM128.728 103.795C126.829 103.795 125.389 102.623 125.309 101.001H126.575C126.669 101.94 127.586 102.638 128.728 102.645C130.096 102.638 131.086 101.641 131.086 100.317C131.086 98.9491 130.06 97.9378 128.641 97.9305C127.753 97.9159 127.062 98.1924 126.677 98.8764H125.411L126.153 93.1138H131.857V94.2779H127.244L126.851 97.363H126.953C127.426 96.9992 128.132 96.7518 128.874 96.7518C130.882 96.7518 132.359 98.2361 132.366 100.288C132.359 102.325 130.831 103.795 128.728 103.795Z" fill="#06FFD2"/>
</g>
<g filter="url(#filter1_d_8691_12875)">
<path fill-rule="evenodd" clip-rule="evenodd" d="M242.913 143.97L246.657 141.974L240.772 130.94H248.416L231.394 113.879V137.611L236.76 132.431L242.913 143.97Z" fill="black"/>
<path d="M241.978 144.469L242.477 145.404L243.412 144.906L247.156 142.91L248.092 142.41L247.593 141.474L242.54 132H248.416H250.973L249.167 130.191L232.144 113.13L230.333 111.314V113.879V137.611V140.109L232.13 138.374L236.485 134.17L241.978 144.469Z" stroke="white" stroke-width="2.12122"/>
</g>
<defs>
<filter id="filter0_d_8691_12875" x="0" y="0" width="428" height="198" filterUnits="userSpaceOnUse" color-interpolation-filters="sRGB">
<feFlood flood-opacity="0" result="BackgroundImageFix"/>
<feColorMatrix in="SourceAlpha" type="matrix" values="0 0 0 0 0 0 0 0 0 0 0 0 0 0 0 0 0 0 127 0" result="hardAlpha"/>
<feOffset dx="20" dy="32"/>
<feGaussianBlur stdDeviation="20"/>
<feComposite in2="hardAlpha" operator="out"/>
<feColorMatrix type="matrix" values="0 0 0 0 0 0 0 0 0 0 0 0 0 0 0 0 0 0 0.3 0"/>
<feBlend mode="normal" in2="BackgroundImageFix" result="effect1_dropShadow_8691_12875"/>
<feBlend mode="normal" in="SourceGraphic" in2="effect1_dropShadow_8691_12875" result="shape"/>
</filter>
<filter id="filter1_d_8691_12875" x="225.03" y="106.629" width="32.7417" height="46.5737" filterUnits="userSpaceOnUse" color-interpolation-filters="sRGB">
<feFlood flood-opacity="0" result="BackgroundImageFix"/>
<feColorMatrix in="SourceAlpha" type="matrix" values="0 0 0 0 0 0 0 0 0 0 0 0 0 0 0 0 0 0 127 0" result="hardAlpha"/>
<feOffset dy="2.12122"/>
<feGaussianBlur stdDeviation="2.12122"/>
<feComposite in2="hardAlpha" operator="out"/>
<feColorMatrix type="matrix" values="0 0 0 0 0 0 0 0 0 0 0 0 0 0 0 0 0 0 0.4049 0"/>
<feBlend mode="normal" in2="BackgroundImageFix" result="effect1_dropShadow_8691_12875"/>
<feBlend mode="normal" in="SourceGraphic" in2="effect1_dropShadow_8691_12875" result="shape"/>
</filter>
<clipPath id="clip0_8691_12875">
<rect width="29.8024" height="29.8024" fill="white" transform="translate(37.3848 25.3848)"/>
</clipPath>
<clipPath id="clip1_8691_12875">
<rect width="22.3518" height="22.3518" fill="white" transform="translate(47.3193 87.4736)"/>
</clipPath>
<clipPath id="clip2_8691_12875">
<rect width="22.3518" height="22.3518" fill="white" transform="translate(47.3193 87.4736)"/>
</clipPath>
</defs>
</svg>
