<svg xmlns="http://www.w3.org/2000/svg" width="28" height="6" viewBox="0 0 28 6" fill="none">
    <path fill-rule="evenodd" clip-rule="evenodd"
        d="M13.786 0C12.1686 0 10.8574 1.31117 10.8574 2.92857C10.8574 4.54598 12.1686 5.85714 13.786 5.85714C15.4034 5.85714 16.7146 4.54598 16.7146 2.92857C16.7146 1.31117 15.4034 0 13.786 0Z"
        fill="#A5A5A5" />
    <path fill-rule="evenodd" clip-rule="evenodd"
        d="M2.92857 0C1.31117 0 0 1.31117 0 2.92857C0 4.54598 1.31117 5.85714 2.92857 5.85714C4.54598 5.85714 5.85714 4.54598 5.85714 2.92857C5.85714 1.31117 4.54598 0 2.92857 0Z"
        fill="#A5A5A5" />
    <path fill-rule="evenodd" clip-rule="evenodd"
        d="M24.6424 0C23.025 0 21.7139 1.31117 21.7139 2.92857C21.7139 4.54598 23.025 5.85714 24.6424 5.85714C26.2598 5.85714 27.571 4.54598 27.571 2.92857C27.571 1.31117 26.2598 0 24.6424 0Z"
        fill="#A5A5A5" />
</svg>