<svg width="297" height="816" viewBox="0 0 297 816" fill="none" xmlns="http://www.w3.org/2000/svg">
<g filter="url(#filter0_d_8691_12343)">
<rect x="6" y="1" width="285" height="805" rx="15" fill="#33373F"/>
<rect x="6.5" y="1.5" width="284" height="804" rx="14.5" stroke="#4C535D"/>
<rect x="22.1885" y="17.1885" width="252.623" height="91.7728" rx="7.19483" fill="#4C535D"/>
<path d="M53.3352 38.6328C56.7693 38.6328 59.3514 40.3718 59.3602 43.0066C59.3514 45.4218 57.3138 47.0379 54.4419 47.3541V50.0855H60.6776V51.9299H46.0456V50.0855H52.211V47.3541C49.3567 47.0291 47.3278 45.4131 47.3278 43.0066C47.3278 40.3718 49.9012 38.6328 53.3352 38.6328ZM49.5411 43.0066C49.5411 44.6929 51.0956 45.6326 53.3352 45.6414C55.5836 45.6326 57.1382 44.6929 57.1469 43.0066C57.1382 41.4081 55.5836 40.4157 53.3352 40.4245C51.0956 40.4157 49.5411 41.4081 49.5411 43.0066ZM74.5192 41.0393V42.8134H63.4003V38.0004H65.6311V41.0393H74.5192ZM61.5735 45.659V43.8849H76.2055V45.659H61.5735ZM63.2422 48.3465V46.6251H74.449V50.8759H65.5257V51.8947H74.9408V53.6162H63.2773V49.2599H72.2181V48.3465H63.2422ZM96.1599 43.8673V45.6941H93.894V53.7567H91.6456V37.8072H93.894V43.8673H96.1599ZM81.7913 49.8571V39.3354H84.0222V48.004C86.0685 47.9688 88.2642 47.7756 90.5741 47.3101L90.8024 49.1721C88.1237 49.7166 85.5328 49.8571 83.179 49.8571H81.7913ZM102.009 38.8787C104.547 38.8699 106.427 40.5035 106.436 42.7958C106.427 45.0969 104.547 46.7217 102.009 46.7305C99.4886 46.7217 97.5564 45.0969 97.5651 42.7958C97.5564 40.5035 99.4886 38.8699 102.009 38.8787ZM96.8977 48.7329C99.752 48.7417 103.704 48.7066 107.121 48.2235L107.296 49.8396C103.748 50.5334 99.9541 50.5598 97.1611 50.5598L96.8977 48.7329ZM99.796 42.7958C99.7872 44.0605 100.744 44.7895 102.009 44.7807C103.283 44.7895 104.249 44.0605 104.258 42.7958C104.249 41.5487 103.283 40.8109 102.009 40.8109C100.744 40.8109 99.7872 41.5487 99.796 42.7958ZM108.034 53.8269V37.8072H110.265V53.8269H108.034ZM131.098 44.3416V46.1508H116.518V44.3416H122.666V43.3052H118.328V38.2639H129.253V43.3052H124.879V44.3416H131.098ZM118.205 48.6276V46.9413H129.324V51.034H120.418V52.0001H129.745V53.6864H118.222V49.4531H127.11V48.6276H118.205ZM120.523 41.5838H127.022V40.0029H120.523V41.5838ZM145.449 37.8072V46.3967H143.2V37.8072H145.449ZM132.31 42.2688C132.31 40.0205 134.189 38.4571 136.684 38.4747C139.169 38.4571 141.049 40.0205 141.057 42.2688C141.049 44.447 139.169 46.0103 136.684 46.0103C134.189 46.0103 132.31 44.447 132.31 42.2688ZM134.505 42.2688C134.488 43.4545 135.401 44.1659 136.684 44.1659C137.931 44.1659 138.835 43.4545 138.844 42.2688C138.835 41.0656 137.931 40.3279 136.684 40.3366C135.401 40.3279 134.488 41.0656 134.505 42.2688ZM134.751 53.6162V47.0994H136.965V48.5924H143.218V47.0994H145.449V53.6162H134.751ZM136.965 51.8069H143.218V50.3314H136.965V51.8069ZM157.973 41.4257C157.964 44.3591 159.299 47.3014 162.013 48.4519L160.696 50.2436C158.869 49.418 157.604 47.8195 156.875 45.8434C156.155 48.004 154.846 49.743 152.896 50.63L151.544 48.7681C154.337 47.5912 155.698 44.526 155.707 41.4257V39.0368H157.973V41.4257ZM162.874 53.8269V37.8072H165.14V53.8269H162.874ZM179.982 37.8072V42.2864H182.143V44.1308H179.982V49.2599H177.716V37.8072H179.982ZM167.195 45.9225C170.778 44.93 172.807 43.0769 173.158 40.8285H167.897V39.0017H175.626C175.617 43.3228 172.921 46.344 168.126 47.6966L167.195 45.9225ZM169.584 53.5108V48.083H171.85V51.7191H180.527V53.5108H169.584Z" fill="white"/>
<path d="M52.6959 83.1854C48.8701 83.1854 46.562 80.3398 46.562 75.3442C46.562 70.3591 48.8912 67.5029 52.6959 67.5029C56.5005 67.5029 58.8297 70.3591 58.8297 75.3442C58.8297 80.3609 56.5111 83.1854 52.6959 83.1854ZM49.8081 75.3442C49.787 78.8643 50.9253 80.5717 52.6959 80.5717C54.4665 80.5717 55.5942 78.8643 55.5836 75.3442C55.5942 71.8557 54.4559 70.1061 52.6959 70.0956C50.9358 70.1061 49.8081 71.8557 49.8081 75.3442ZM66.945 83.1854C63.1192 83.1854 60.8111 80.3398 60.8111 75.3442C60.8111 70.3591 63.1403 67.5029 66.945 67.5029C70.7497 67.5029 73.0788 70.3591 73.0788 75.3442C73.0788 80.3609 70.7602 83.1854 66.945 83.1854ZM64.0572 75.3442C64.0361 78.8643 65.1744 80.5717 66.945 80.5717C68.7156 80.5717 69.8433 78.8643 69.8327 75.3442C69.8433 71.8557 68.705 70.1061 66.945 70.0956C65.1849 70.1061 64.0572 71.8557 64.0572 75.3442ZM82.1005 70.0745C82.0899 73.5946 83.6919 77.1253 86.9486 78.5059L85.3677 80.656C83.1755 79.6653 81.6578 77.7471 80.7831 75.3758C79.9189 77.9684 78.3485 80.0552 76.0088 81.1197L74.3857 78.8854C77.7372 77.4731 79.3708 73.7949 79.3813 70.0745V67.2078H82.1005V70.0745ZM87.9814 84.956V65.7323H90.7006V84.956H87.9814ZM108.512 65.7323V71.1074H111.105V73.3206H108.512V79.4756H105.793V65.7323H108.512ZM93.1667 75.4706C97.4668 74.2797 99.9014 72.0559 100.323 69.3578H94.0099V67.1657H103.284C103.274 72.351 100.038 75.9765 94.2839 77.5996L93.1667 75.4706ZM96.0334 84.5766V78.0633H98.7526V82.4266H109.165V84.5766H96.0334ZM123.478 83.1854C119.652 83.1854 117.344 80.3398 117.344 75.3442C117.344 70.3591 119.673 67.5029 123.478 67.5029C127.282 67.5029 129.612 70.3591 129.612 75.3442C129.612 80.3609 127.293 83.1854 123.478 83.1854ZM120.59 75.3442C120.569 78.8643 121.707 80.5717 123.478 80.5717C125.248 80.5717 126.376 78.8643 126.366 75.3442C126.376 71.8557 125.238 70.1061 123.478 70.0956C121.718 70.1061 120.59 71.8557 120.59 75.3442ZM137.727 83.1854C133.901 83.1854 131.593 80.3398 131.593 75.3442C131.593 70.3591 133.922 67.5029 137.727 67.5029C141.532 67.5029 143.861 70.3591 143.861 75.3442C143.861 80.3609 141.542 83.1854 137.727 83.1854ZM134.839 75.3442C134.818 78.8643 135.956 80.5717 137.727 80.5717C139.497 80.5717 140.625 78.8643 140.615 75.3442C140.625 71.8557 139.487 70.1061 137.727 70.0956C135.967 70.1061 134.839 71.8557 134.839 75.3442ZM162.958 75.576V77.6839H155.728V80.7824H153.072V77.6839H145.399V75.576H162.958ZM147.465 84.5766V79.2648H150.121V82.4266H161.019V84.5766H147.465ZM147.655 74.227V66.3436H150.311V68.3461H158.004V66.3436H160.681V74.227H147.655ZM150.311 72.0981H158.004V70.3485H150.311V72.0981ZM175.605 83.1854C171.779 83.1854 169.471 80.3398 169.471 75.3442C169.471 70.3591 171.8 67.5029 175.605 67.5029C179.41 67.5029 181.739 70.3591 181.739 75.3442C181.739 80.3609 179.42 83.1854 175.605 83.1854ZM172.717 75.3442C172.696 78.8643 173.835 80.5717 175.605 80.5717C177.376 80.5717 178.503 78.8643 178.493 75.3442C178.503 71.8557 177.365 70.1061 175.605 70.0956C173.845 70.1061 172.717 71.8557 172.717 75.3442ZM189.854 83.1854C186.028 83.1854 183.72 80.3398 183.72 75.3442C183.72 70.3591 186.05 67.5029 189.854 67.5029C193.659 67.5029 195.988 70.3591 195.988 75.3442C195.988 80.3609 193.669 83.1854 189.854 83.1854ZM186.966 75.3442C186.945 78.8643 188.084 80.5717 189.854 80.5717C191.625 80.5717 192.753 78.8643 192.742 75.3442C192.753 71.8557 191.614 70.1061 189.854 70.0956C188.094 70.1061 186.966 71.8557 186.966 75.3442ZM215.106 80.5295V82.7217H197.548V80.5295H204.968V76.7775H207.645V80.5295H215.106ZM198.138 75.3442C202.512 74.8172 204.683 72.6461 204.925 70.5172H199.066V68.3671H204.968V65.9642H207.645V68.3671H213.568V70.5172H207.708C207.929 72.6461 210.111 74.8172 214.474 75.3442L213.504 77.4309C210.069 76.9883 207.592 75.5655 206.296 73.5841C205.02 75.5655 202.554 76.9883 199.129 77.4309L198.138 75.3442Z" fill="white"/>
<path d="M29.9524 141.197C33.3865 141.197 35.9686 142.936 35.9774 145.571C35.9686 147.986 33.931 149.602 31.0591 149.919V152.65H37.2948V154.494H22.6627V152.65H28.8282V149.919C25.9738 149.594 23.945 147.978 23.945 145.571C23.945 142.936 26.5184 141.197 29.9524 141.197ZM26.1583 145.571C26.1583 147.257 27.7128 148.197 29.9524 148.206C32.2008 148.197 33.7554 147.257 33.7641 145.571C33.7554 143.973 32.2008 142.98 29.9524 142.989C27.7128 142.98 26.1583 143.973 26.1583 145.571ZM51.1364 143.604V145.378H40.0175V140.565H42.2483V143.604H51.1364ZM38.1906 148.223V146.449H52.8227V148.223H38.1906ZM39.8594 150.911V149.19H51.0661V153.44H42.1429V154.459H51.558V156.181H39.8945V151.824H48.8353V150.911H39.8594ZM70.5814 140.337V143.814H72.742V145.606H70.5814V148.996H68.333V140.337H70.5814ZM57.8991 143.27V141.566H61.5352V140.266H63.766V141.566H67.3845V143.27H57.8991ZM58.672 146.274C58.672 144.675 60.2617 143.665 62.6418 143.656C65.0395 143.665 66.5765 144.675 66.5765 146.274C66.5765 147.907 65.0395 148.882 62.6418 148.891C60.2617 148.882 58.672 147.907 58.672 146.274ZM59.9719 151.262V149.646H70.5814V153.686H62.2027V154.6H71.0381V156.251H60.007V152.158H68.3506V151.262H59.9719ZM60.8677 146.274C60.8589 146.959 61.5352 147.284 62.6418 147.292C63.7572 147.284 64.4511 146.959 64.4511 146.274C64.4511 145.597 63.7572 145.229 62.6418 145.237C61.5352 145.229 60.8589 145.597 60.8677 146.274ZM82.1395 140.846C84.5723 140.837 86.3991 142.365 86.4079 144.5C86.3991 146.616 84.5723 148.127 82.1395 148.136C79.6716 148.127 77.836 146.616 77.836 144.5C77.836 142.365 79.6716 140.837 82.1395 140.846ZM80.0141 144.5C79.9965 145.641 80.9011 146.318 82.1395 146.326C83.3515 146.318 84.2386 145.641 84.2474 144.5C84.2386 143.349 83.3515 142.673 82.1395 142.673C80.9099 142.673 79.9965 143.349 80.0141 144.5ZM80.2424 150.77V149.049H90.9749V153.388H82.4732V154.424H91.4141V156.181H80.2776V151.754H88.7441V150.77H80.2424ZM88.7266 148.382V140.372H90.9749V148.382H88.7266Z" fill="white"/>
<rect x="22.1885" y="175.929" width="251.819" height="85.4385" rx="7.19483" fill="#181C22"/>
<g clip-path="url(#clip0_8691_12343)">
<path fill-rule="evenodd" clip-rule="evenodd" d="M40.6754 193.017C40.3043 193.017 39.9485 193.164 39.6861 193.426C39.4238 193.689 39.2764 194.045 39.2764 194.416V204.209C39.2764 204.58 39.4238 204.935 39.6861 205.198C39.9485 205.46 40.3043 205.608 40.6754 205.608H50.4683C50.8394 205.608 51.1952 205.46 51.4576 205.198C51.7199 204.935 51.8673 204.58 51.8673 204.209V194.416C51.8673 194.045 51.7199 193.689 51.4576 193.426C51.1952 193.164 50.8394 193.017 50.4683 193.017H40.6754ZM40.6754 194.416H50.4683V204.209H40.6754V194.416Z" fill="white"/>
</g>
<path d="M73.1422 192.859V200.686H71.6386V192.859H73.1422ZM62.097 197.637C63.7974 197.644 66.6008 197.609 68.6735 197.285L68.7719 198.339C67.992 198.508 67.1418 198.62 66.2846 198.691V200.63H64.781V198.782C63.8395 198.817 62.9542 198.824 62.2516 198.817L62.097 197.637ZM62.6732 195.192C62.6732 194.025 63.7974 193.308 65.4696 193.308C67.1208 193.308 68.252 194.025 68.252 195.192C68.252 196.344 67.1208 197.089 65.4696 197.089C63.7974 197.089 62.6732 196.344 62.6732 195.192ZM64.0925 195.192C64.0995 195.718 64.6124 195.985 65.4696 195.993C66.3057 195.985 66.8538 195.718 66.8608 195.192C66.8538 194.672 66.3057 194.391 65.4696 194.391C64.6124 194.391 64.0995 194.672 64.0925 195.192ZM64.233 205.408V201.108H65.7787V202.077H71.5824V201.108H73.1422V205.408H64.233ZM65.7787 204.185H71.5824V203.272H65.7787V204.185ZM67.2402 200.138V199.07H69.2637V193.084H70.7392V200.672H69.2637V200.138H67.2402ZM79.1566 195.908C79.1426 198.178 80.2808 200.468 82.2482 201.417L81.2926 202.667C79.9155 201.972 78.9248 200.63 78.3837 199.014C77.8287 200.742 76.7888 202.176 75.3344 202.906L74.3788 201.656C76.4234 200.686 77.5898 198.255 77.5968 195.908V193.885H79.1566V195.908ZM83.007 205.562V192.859H84.5668V197.833H86.5201V199.168H84.5668V205.562H83.007ZM97.6215 192.859V205.576H96.0476V192.859H97.6215ZM87.4616 198.269C87.4546 195.529 88.8528 193.786 90.778 193.786C92.6821 193.786 94.0873 195.529 94.0943 198.269C94.0873 201.03 92.6821 202.766 90.778 202.766C88.8528 202.766 87.4546 201.03 87.4616 198.269ZM88.9652 198.269C88.9652 200.222 89.7029 201.353 90.778 201.361C91.8459 201.353 92.5767 200.222 92.5767 198.269C92.5767 196.33 91.8459 195.192 90.778 195.192C89.7029 195.192 88.9652 196.33 88.9652 198.269ZM109.819 199.52V200.756H100.91V193.857H109.707V195.121H102.498V196.653H109.411V197.876H102.498V199.52H109.819ZM99.4904 204.016V202.738H111.098V204.016H99.4904ZM125.923 192.859V205.576H124.377V192.859H125.923ZM116.03 195.234V193.969H122.016V198.733H117.646V201.29C119.649 201.276 121.37 201.171 123.351 200.841L123.492 202.119C121.335 202.492 119.438 202.576 117.154 202.569H116.044V197.496H120.429V195.234H116.03ZM138.036 196.962V198.227H129.211V193.463H130.771V196.962H138.036ZM127.778 201.051V199.787H139.357V201.051H136.575V205.562H135.001V201.051H132.134V205.562H130.574V201.051H127.778ZM150.852 192.859V199.239H149.292V196.765H147.002C146.692 198.15 145.4 199.063 143.741 199.07C141.816 199.063 140.383 197.861 140.383 196.133C140.383 194.44 141.816 193.252 143.741 193.252C145.393 193.252 146.678 194.152 146.995 195.501H149.292V192.859H150.852ZM141.872 196.133C141.872 197.152 142.652 197.791 143.741 197.791C144.795 197.791 145.575 197.152 145.582 196.133C145.575 195.163 144.795 194.517 143.741 194.517C142.652 194.517 141.872 195.163 141.872 196.133ZM142.477 201.065V199.857H150.852V203.145H144.051V204.171H151.259V205.408H142.491V201.993H149.292V201.065H142.477Z" fill="white"/>
<path d="M53.5665 220.597H46.5715C46.0197 220.597 45.5723 221.044 45.5723 221.596V227.092C45.5723 227.644 46.0197 228.091 46.5715 228.091H53.5665C54.1184 228.091 54.5658 227.644 54.5658 227.092V221.596C54.5658 221.044 54.1184 220.597 53.5665 220.597Z" stroke="#A5A5A5" stroke-width="1.16916"/>
<path d="M45.5723 222.695C45.5723 221.847 45.5723 221.424 45.8651 221.16C46.1578 220.896 46.6285 220.896 47.5708 220.896H52.5672C53.5096 220.896 53.9802 220.896 54.273 221.16C54.5658 221.424 54.5658 221.847 54.5658 222.695H45.5723Z" fill="#A5A5A5"/>
<path d="M47.5713 219.098V220.597M52.5677 219.098V220.597" stroke="#A5A5A5" stroke-width="1.16916" stroke-linecap="round"/>
<path d="M66.4086 219.189C68.4005 219.2 69.8338 220.169 69.8338 221.645C69.8338 223.041 68.5902 223.964 66.8091 224.085V226.05H70.7191V226.746H62.1402V226.05H65.9975V224.085C64.2269 223.958 62.9833 223.036 62.9833 221.645C62.9833 220.169 64.4219 219.2 66.4086 219.189ZM63.7843 221.645C63.779 222.725 64.8909 223.426 66.4086 223.437C67.9262 223.426 69.0329 222.725 69.0329 221.645C69.0329 220.586 67.9262 219.869 66.4086 219.874C64.8909 219.869 63.779 220.586 63.7843 221.645ZM79.0241 220.833V221.518H72.6268V218.736H73.4383V220.833H79.0241ZM71.4569 223.12V222.446H80.0359V223.12H71.4569ZM72.5319 224.617V223.964H78.9293V226.156H73.3856V227.157H79.2665V227.821H72.553V225.523H78.1177V224.617H72.5319Z" fill="#A5A5A5"/>
<g clip-path="url(#clip1_8691_12343)">
<g clip-path="url(#clip2_8691_12343)">
<path d="M50.068 236.186C53.0483 236.186 55.4641 238.601 55.4641 241.582C55.4641 244.562 53.0483 246.978 50.068 246.978C47.0877 246.978 44.6719 244.562 44.6719 241.582C44.6719 238.601 47.0877 236.186 50.068 236.186ZM50.068 237.265C48.9231 237.265 47.8251 237.72 47.0155 238.529C46.2059 239.339 45.7511 240.437 45.7511 241.582C45.7511 242.727 46.2059 243.825 47.0155 244.634C47.8251 245.444 48.9231 245.899 50.068 245.899C51.2129 245.899 52.3109 245.444 53.1205 244.634C53.9301 243.825 54.3849 242.727 54.3849 241.582C54.3849 240.437 53.9301 239.339 53.1205 238.529C52.3109 237.72 51.2129 237.265 50.068 237.265ZM50.068 238.344C50.2002 238.344 50.3277 238.393 50.4265 238.48C50.5253 238.568 50.5884 238.689 50.6038 238.82L50.6076 238.884V241.358L52.0683 242.819C52.1651 242.916 52.2213 243.046 52.2255 243.183C52.2297 243.32 52.1815 243.454 52.0909 243.557C52.0002 243.66 51.8738 243.724 51.7373 243.737C51.6008 243.75 51.4645 243.711 51.356 243.627L51.3053 243.582L49.6865 241.963C49.6026 241.879 49.5488 241.77 49.5332 241.652L49.5284 241.582V238.884C49.5284 238.74 49.5852 238.603 49.6864 238.502C49.7876 238.401 49.9249 238.344 50.068 238.344Z" fill="#A5A5A5"/>
</g>
</g>
<path d="M64.9752 245.186C63.2837 245.186 62.3035 243.764 62.3088 241.266C62.3035 238.789 63.2942 237.345 64.9752 237.345C66.651 237.345 67.6417 238.789 67.6417 241.266C67.6417 243.764 66.6668 245.186 64.9752 245.186ZM63.2257 241.266C63.231 243.242 63.8686 244.343 64.9752 244.343C66.0766 244.343 66.7195 243.242 66.7142 241.266C66.7195 239.29 66.0713 238.173 64.9752 238.167C63.8791 238.173 63.231 239.29 63.2257 241.266ZM71.4042 245.186C69.7126 245.186 68.7325 243.764 68.7378 241.266C68.7325 238.789 69.7232 237.345 71.4042 237.345C73.0799 237.345 74.0706 238.789 74.0706 241.266C74.0706 243.764 73.0958 245.186 71.4042 245.186ZM69.6547 241.266C69.6599 243.242 70.2976 244.343 71.4042 244.343C72.5056 244.343 73.1485 243.242 73.1432 241.266C73.1485 239.29 72.5003 238.173 71.4042 238.167C70.3081 238.173 69.6599 239.29 69.6547 241.266ZM75.9888 244.069C75.6199 244.064 75.3037 243.758 75.3143 243.384C75.3037 243.015 75.6199 242.71 75.9888 242.71C76.3629 242.71 76.6686 243.015 76.6633 243.384C76.6686 243.758 76.3629 244.064 75.9888 244.069ZM75.3143 239.147C75.3037 238.779 75.6199 238.473 75.9888 238.473C76.3629 238.473 76.6686 238.779 76.6633 239.147C76.6686 239.522 76.3629 239.827 75.9888 239.832C75.6199 239.827 75.3037 239.522 75.3143 239.147ZM80.5734 245.186C78.8818 245.186 77.9017 243.764 77.9069 241.266C77.9017 238.789 78.8924 237.345 80.5734 237.345C82.2491 237.345 83.2398 238.789 83.2398 241.266C83.2398 243.764 82.2649 245.186 80.5734 245.186ZM78.8239 241.266C78.8291 243.242 79.4668 244.343 80.5734 244.343C81.6747 244.343 82.3176 243.242 82.3124 241.266C82.3176 239.29 81.6695 238.173 80.5734 238.167C79.4773 238.173 78.8291 239.29 78.8239 241.266ZM87.0024 245.186C85.3108 245.186 84.3306 243.764 84.3359 241.266C84.3306 238.789 85.3213 237.345 87.0024 237.345C88.6781 237.345 89.6688 238.789 89.6688 241.266C89.6688 243.764 88.6939 245.186 87.0024 245.186ZM85.2528 241.266C85.2581 243.242 85.8957 244.343 87.0024 244.343C88.1037 244.343 88.7466 243.242 88.7413 241.266C88.7466 239.29 88.0984 238.173 87.0024 238.167C85.9063 238.173 85.2581 239.29 85.2528 241.266ZM91.5869 244.069C91.2181 244.064 90.9019 243.758 90.9124 243.384C90.9019 243.015 91.2181 242.71 91.5869 242.71C91.9611 242.71 92.2667 243.015 92.2615 243.384C92.2667 243.758 91.9611 244.064 91.5869 244.069ZM90.9124 239.147C90.9019 238.779 91.2181 238.473 91.5869 238.473C91.9611 238.473 92.2667 238.779 92.2615 239.147C92.2667 239.522 91.9611 239.827 91.5869 239.832C91.2181 239.827 90.9019 239.522 90.9124 239.147ZM96.1715 245.186C94.48 245.186 93.4998 243.764 93.5051 241.266C93.4998 238.789 94.4905 237.345 96.1715 237.345C97.8473 237.345 98.838 238.789 98.838 241.266C98.838 243.764 97.8631 245.186 96.1715 245.186ZM94.422 241.266C94.4273 243.242 95.0649 244.343 96.1715 244.343C97.2729 244.343 97.9158 243.242 97.9105 241.266C97.9158 239.29 97.2676 238.173 96.1715 238.167C95.0755 238.173 94.4273 239.29 94.422 241.266ZM102.601 245.186C100.909 245.186 99.9288 243.764 99.9341 241.266C99.9288 238.789 100.919 237.345 102.601 237.345C104.276 237.345 105.267 238.789 105.267 241.266C105.267 243.764 104.292 245.186 102.601 245.186ZM100.851 241.266C100.856 243.242 101.494 244.343 102.601 244.343C103.702 244.343 104.345 243.242 104.339 241.266C104.345 239.29 103.697 238.173 102.601 238.167C101.504 238.173 100.856 239.29 100.851 241.266Z" fill="#A5A5A5"/>
<rect x="243.43" y="231.688" width="19.7858" height="19.7858" rx="9.89288" fill="#06FFD2"/>
<path d="M254.375 236.907V247.081H253.096V238.228H253.04L250.567 239.872V238.593L253.096 236.907H254.375Z" fill="#333333"/>
<rect x="22.1885" y="270.36" width="251.819" height="85.4385" rx="7.19483" fill="#181C22"/>
<g clip-path="url(#clip3_8691_12343)">
<path fill-rule="evenodd" clip-rule="evenodd" d="M40.6754 287.448C40.3043 287.448 39.9485 287.596 39.6861 287.858C39.4238 288.12 39.2764 288.476 39.2764 288.847V298.64C39.2764 299.011 39.4238 299.367 39.6861 299.629C39.9485 299.892 40.3043 300.039 40.6754 300.039H50.4683C50.8394 300.039 51.1952 299.892 51.4576 299.629C51.7199 299.367 51.8673 299.011 51.8673 298.64V288.847C51.8673 288.476 51.7199 288.12 51.4576 287.858C51.1952 287.596 50.8394 287.448 50.4683 287.448H40.6754ZM40.6754 288.847H50.4683V298.64H40.6754V288.847Z" fill="white"/>
</g>
<path d="M73.7605 293.586V294.837H68.7298V296.045H72.3412V299.966H70.7814V297.296H63.4601V296.045H67.184V294.837H62.1813V293.586H73.7605ZM62.7294 291.872C65.3923 291.668 66.8889 290.79 67.0645 289.707H63.3196V288.485H67.184V287.276H68.7298V288.485H72.6223V289.707H68.8422C69.0108 290.79 70.5074 291.668 73.1844 291.872L72.6925 293.052C70.4231 292.869 68.7438 292.167 67.9569 291.057C67.1559 292.167 65.4766 292.869 63.2212 293.052L62.7294 291.872ZM85.5505 287.29V299.994H84.0609V287.29H85.5505ZM74.3929 296.382C76.2267 295.265 77.0347 292.975 77.0347 290.761V289.918H74.8285V288.654H80.59V289.918H78.5383V290.761C78.5383 292.904 79.3042 295.054 81.124 296.101L80.1965 297.254C79.0231 296.558 78.2432 295.35 77.8006 293.902C77.3509 295.469 76.5429 296.804 75.3484 297.549L74.3929 296.382ZM79.6625 292.982V291.717H81.4893V287.529H82.9648V299.376H81.4893V292.982H79.6625ZM101.43 287.29V299.994H99.9261V287.29H101.43ZM90.5953 292.785C90.5953 289.989 91.6773 288.253 93.3355 288.26C94.4105 288.253 95.2466 288.963 95.7174 290.199H97.3826V287.515H98.8581V299.376H97.3826V295.371H95.7174C95.2536 296.614 94.4105 297.331 93.3355 297.324C91.6773 297.331 90.5953 295.588 90.5953 292.785ZM92.0286 292.785C92.0146 294.773 92.4994 295.841 93.3355 295.834C94.1786 295.841 94.6986 294.773 94.6986 292.785C94.6986 290.804 94.1786 289.729 93.3355 289.736C92.4994 289.729 92.0146 290.804 92.0286 292.785ZM96.0336 291.464C96.0968 291.872 96.1319 292.314 96.1319 292.785C96.1319 293.249 96.0968 293.684 96.0406 294.092H97.3826V291.464H96.0336ZM107.458 289.539C107.444 291.204 108.498 292.799 110.493 293.445L109.678 294.682C108.273 294.204 107.268 293.249 106.713 292.026C106.151 293.375 105.104 294.429 103.622 294.949L102.751 293.712C104.837 293.031 105.884 291.331 105.884 289.525V288.077H107.458V289.539ZM104.788 299.741V295.708H106.39V298.476H113.43V299.741H104.788ZM111.365 296.621V287.29H112.925V291.042H114.695V292.363H112.925V296.621H111.365ZM125.361 287.29V291.014H127.131V292.307H125.361V296.579H123.801V287.29H125.361ZM115.482 291.338C115.475 289.462 116.979 288.141 118.911 288.134C120.843 288.141 122.326 289.462 122.34 291.338C122.326 293.185 120.843 294.527 118.911 294.527C116.979 294.527 115.475 293.185 115.482 291.338ZM117.014 291.338C117.007 292.434 117.85 293.157 118.911 293.15C119.986 293.157 120.801 292.434 120.808 291.338C120.801 290.213 119.986 289.497 118.911 289.497C117.85 289.497 117.007 290.213 117.014 291.338ZM117.225 299.741V295.609H118.784V298.476H125.867V299.741H117.225ZM141.521 287.29V292.167H143.067V293.474H141.521V299.994H139.961V287.29H141.521ZM130.926 296.172C132.514 294.991 132.823 292.68 132.823 290.691V289.722H131.403V288.457H135.113V289.722H134.298V290.691C134.305 292.153 134.453 293.993 135.366 295.335C136.252 294.015 136.413 292.181 136.42 290.691V289.722H135.605V288.457H139.146V289.722H137.91V290.691C137.903 292.715 138.212 294.998 139.807 296.172L138.809 297.296C137.952 296.628 137.439 295.602 137.137 294.415C136.828 295.631 136.28 296.727 135.352 297.408C134.439 296.727 133.898 295.638 133.589 294.429C133.286 295.609 132.774 296.635 131.923 297.296L130.926 296.172ZM154.239 287.29V299.994H152.665V287.29H154.239ZM143.713 296.495C147.044 294.914 148.575 292.764 148.856 289.876H144.36V288.639H150.444C150.444 292.42 148.976 295.631 144.528 297.745L143.713 296.495Z" fill="white"/>
<path d="M53.5665 315.028H46.5715C46.0197 315.028 45.5723 315.476 45.5723 316.028V321.524C45.5723 322.076 46.0197 322.523 46.5715 322.523H53.5665C54.1184 322.523 54.5658 322.076 54.5658 321.524V316.028C54.5658 315.476 54.1184 315.028 53.5665 315.028Z" stroke="#A5A5A5" stroke-width="1.16916"/>
<path d="M45.5723 317.127C45.5723 316.279 45.5723 315.855 45.8651 315.592C46.1578 315.328 46.6285 315.328 47.5708 315.328H52.5672C53.5096 315.328 53.9802 315.328 54.273 315.592C54.5658 315.855 54.5658 316.279 54.5658 317.127H45.5723Z" fill="#A5A5A5"/>
<path d="M47.5713 313.529V315.028M52.5677 313.529V315.028" stroke="#A5A5A5" stroke-width="1.16916" stroke-linecap="round"/>
<path d="M66.4086 313.621C68.4005 313.631 69.8338 314.601 69.8338 316.077C69.8338 317.473 68.5902 318.395 66.8091 318.516V320.482H70.7191V321.178H62.1402V320.482H65.9975V318.516C64.2269 318.39 62.9833 317.468 62.9833 316.077C62.9833 314.601 64.4219 313.631 66.4086 313.621ZM63.7843 316.077C63.779 317.157 64.8909 317.858 66.4086 317.868C67.9262 317.858 69.0329 317.157 69.0329 316.077C69.0329 315.017 67.9262 314.301 66.4086 314.306C64.8909 314.301 63.779 315.017 63.7843 316.077ZM79.0241 315.265V315.95H72.6268V313.168H73.4383V315.265H79.0241ZM71.4569 317.552V316.878H80.0359V317.552H71.4569ZM72.5319 319.049V318.395H78.9293V320.587H73.3856V321.589H79.2665V322.253H72.553V319.955H78.1177V319.049H72.5319Z" fill="#A5A5A5"/>
<g clip-path="url(#clip4_8691_12343)">
<g clip-path="url(#clip5_8691_12343)">
<path d="M50.068 330.617C53.0483 330.617 55.4641 333.033 55.4641 336.013C55.4641 338.994 53.0483 341.409 50.068 341.409C47.0877 341.409 44.6719 338.994 44.6719 336.013C44.6719 333.033 47.0877 330.617 50.068 330.617ZM50.068 331.696C48.9231 331.696 47.8251 332.151 47.0155 332.961C46.2059 333.77 45.7511 334.868 45.7511 336.013C45.7511 337.158 46.2059 338.256 47.0155 339.066C47.8251 339.875 48.9231 340.33 50.068 340.33C51.2129 340.33 52.3109 339.875 53.1205 339.066C53.9301 338.256 54.3849 337.158 54.3849 336.013C54.3849 334.868 53.9301 333.77 53.1205 332.961C52.3109 332.151 51.2129 331.696 50.068 331.696ZM50.068 332.776C50.2002 332.776 50.3277 332.824 50.4265 332.912C50.5253 333 50.5884 333.121 50.6038 333.252L50.6076 333.315V335.79L52.0683 337.251C52.1651 337.348 52.2213 337.478 52.2255 337.615C52.2297 337.752 52.1815 337.886 52.0909 337.988C52.0002 338.091 51.8738 338.156 51.7373 338.169C51.6008 338.182 51.4645 338.142 51.356 338.058L51.3053 338.014L49.6865 336.395C49.6026 336.311 49.5488 336.202 49.5332 336.084L49.5284 336.013V333.315C49.5284 333.172 49.5852 333.035 49.6864 332.934C49.7876 332.832 49.9249 332.776 50.068 332.776Z" fill="#A5A5A5"/>
</g>
</g>
<path d="M64.9752 339.618C63.2837 339.618 62.3035 338.195 62.3088 335.697C62.3035 333.221 63.2942 331.777 64.9752 331.777C66.651 331.777 67.6417 333.221 67.6417 335.697C67.6417 338.195 66.6668 339.618 64.9752 339.618ZM63.2257 335.697C63.231 337.674 63.8686 338.775 64.9752 338.775C66.0766 338.775 66.7195 337.674 66.7142 335.697C66.7195 333.721 66.0713 332.604 64.9752 332.599C63.8791 332.604 63.231 333.721 63.2257 335.697ZM71.4042 339.618C69.7126 339.618 68.7325 338.195 68.7378 335.697C68.7325 333.221 69.7232 331.777 71.4042 331.777C73.0799 331.777 74.0706 333.221 74.0706 335.697C74.0706 338.195 73.0958 339.618 71.4042 339.618ZM69.6547 335.697C69.6599 337.674 70.2976 338.775 71.4042 338.775C72.5056 338.775 73.1485 337.674 73.1432 335.697C73.1485 333.721 72.5003 332.604 71.4042 332.599C70.3081 332.604 69.6599 333.721 69.6547 335.697ZM75.9888 338.501C75.6199 338.496 75.3037 338.19 75.3143 337.816C75.3037 337.447 75.6199 337.141 75.9888 337.141C76.3629 337.141 76.6686 337.447 76.6633 337.816C76.6686 338.19 76.3629 338.496 75.9888 338.501ZM75.3143 333.579C75.3037 333.21 75.6199 332.905 75.9888 332.905C76.3629 332.905 76.6686 333.21 76.6633 333.579C76.6686 333.953 76.3629 334.259 75.9888 334.264C75.6199 334.259 75.3037 333.953 75.3143 333.579ZM80.5734 339.618C78.8818 339.618 77.9017 338.195 77.9069 335.697C77.9017 333.221 78.8924 331.777 80.5734 331.777C82.2491 331.777 83.2398 333.221 83.2398 335.697C83.2398 338.195 82.2649 339.618 80.5734 339.618ZM78.8239 335.697C78.8291 337.674 79.4668 338.775 80.5734 338.775C81.6747 338.775 82.3176 337.674 82.3124 335.697C82.3176 333.721 81.6695 332.604 80.5734 332.599C79.4773 332.604 78.8291 333.721 78.8239 335.697ZM87.0024 339.618C85.3108 339.618 84.3306 338.195 84.3359 335.697C84.3306 333.221 85.3213 331.777 87.0024 331.777C88.6781 331.777 89.6688 333.221 89.6688 335.697C89.6688 338.195 88.6939 339.618 87.0024 339.618ZM85.2528 335.697C85.2581 337.674 85.8957 338.775 87.0024 338.775C88.1037 338.775 88.7466 337.674 88.7413 335.697C88.7466 333.721 88.0984 332.604 87.0024 332.599C85.9063 332.604 85.2581 333.721 85.2528 335.697ZM91.5869 338.501C91.2181 338.496 90.9019 338.19 90.9124 337.816C90.9019 337.447 91.2181 337.141 91.5869 337.141C91.9611 337.141 92.2667 337.447 92.2615 337.816C92.2667 338.19 91.9611 338.496 91.5869 338.501ZM90.9124 333.579C90.9019 333.21 91.2181 332.905 91.5869 332.905C91.9611 332.905 92.2667 333.21 92.2615 333.579C92.2667 333.953 91.9611 334.259 91.5869 334.264C91.2181 334.259 90.9019 333.953 90.9124 333.579ZM96.1715 339.618C94.48 339.618 93.4998 338.195 93.5051 335.697C93.4998 333.221 94.4905 331.777 96.1715 331.777C97.8473 331.777 98.838 333.221 98.838 335.697C98.838 338.195 97.8631 339.618 96.1715 339.618ZM94.422 335.697C94.4273 337.674 95.0649 338.775 96.1715 338.775C97.2729 338.775 97.9158 337.674 97.9105 335.697C97.9158 333.721 97.2676 332.604 96.1715 332.599C95.0755 332.604 94.4273 333.721 94.422 335.697ZM102.601 339.618C100.909 339.618 99.9288 338.195 99.9341 335.697C99.9288 333.221 100.919 331.777 102.601 331.777C104.276 331.777 105.267 333.221 105.267 335.697C105.267 338.195 104.292 339.618 102.601 339.618ZM100.851 335.697C100.856 337.674 101.494 338.775 102.601 338.775C103.702 338.775 104.345 337.674 104.339 335.697C104.345 333.721 103.697 332.604 102.601 332.599C101.504 332.604 100.856 333.721 100.851 335.697Z" fill="#A5A5A5"/>
<rect x="243.43" y="326.12" width="19.7858" height="19.7858" rx="9.89288" fill="#06FFD2"/>
<path d="M249.778 341.513L249.764 340.585L253.235 336.932C254.436 335.653 255.012 334.964 255.019 334.023C255.012 332.976 254.141 332.301 252.996 332.294C251.78 332.301 251.021 333.067 251.014 334.205H249.82C249.806 332.407 251.197 331.198 253.038 331.198C254.886 331.198 256.193 332.442 256.2 334.023C256.193 335.161 255.666 336.046 253.867 337.901L251.534 340.304V340.389H256.382V341.513H249.778Z" fill="#333333"/>
<rect x="22.1885" y="364.793" width="251.819" height="85.4385" rx="7.19483" fill="#181C22"/>
<g clip-path="url(#clip6_8691_12343)">
<path fill-rule="evenodd" clip-rule="evenodd" d="M40.6754 381.881C40.3043 381.881 39.9485 382.028 39.6861 382.291C39.4238 382.553 39.2764 382.909 39.2764 383.28V393.073C39.2764 393.444 39.4238 393.8 39.6861 394.062C39.9485 394.324 40.3043 394.472 40.6754 394.472H50.4683C50.8394 394.472 51.1952 394.324 51.4576 394.062C51.7199 393.8 51.8673 393.444 51.8673 393.073V383.28C51.8673 382.909 51.7199 382.553 51.4576 382.291C51.1952 382.028 50.8394 381.881 50.4683 381.881H40.6754ZM40.6754 383.28H50.4683V393.073H40.6754V383.28Z" fill="white"/>
</g>
<path d="M72.7628 381.723V394.44H71.217V381.723H72.7628ZM62.8699 384.098V382.833H68.8562V387.597H64.4859V390.155C66.4884 390.14 68.2098 390.035 70.1912 389.705L70.3317 390.984C68.1747 391.356 66.2776 391.44 63.9941 391.433H62.884V386.36H67.2683V384.098H62.8699ZM86.225 391.644V392.951H74.6177V391.644H79.6063V389.143H75.6154V387.906H77.4001V384.112H75.5733V382.847H85.2132V384.112H83.3583V387.906H85.1711V389.143H81.1521V391.644H86.225ZM78.9599 387.906H81.8125V384.112H78.9599V387.906ZM97.3826 388.384V389.621H88.4734V382.721H97.2702V383.986H90.0613V385.517H96.9751V386.74H90.0613V388.384H97.3826ZM87.0541 392.881V391.602H98.6613V392.881H87.0541ZM114.512 391.644V392.923H102.905V391.644H107.922V389.016H109.468V391.644H114.512ZM103.383 388.229C106.137 387.871 107.788 386.41 107.901 384.829H103.931V383.564H107.922V381.92H109.468V383.564H113.473V384.829H109.503C109.608 386.41 111.259 387.871 114.007 388.229L113.43 389.452C111.238 389.143 109.538 388.166 108.695 386.782C107.859 388.166 106.172 389.143 103.973 389.452L103.383 388.229ZM125.361 381.723V385.447H127.131V386.74H125.361V391.012H123.801V381.723H125.361ZM115.482 385.77C115.475 383.894 116.979 382.573 118.911 382.566C120.843 382.573 122.326 383.894 122.34 385.77C122.326 387.618 120.843 388.96 118.911 388.96C116.979 388.96 115.475 387.618 115.482 385.77ZM117.014 385.77C117.007 386.866 117.85 387.59 118.911 387.583C119.986 387.59 120.801 386.866 120.808 385.77C120.801 384.646 119.986 383.929 118.911 383.929C117.85 383.929 117.007 384.646 117.014 385.77ZM117.225 394.174V390.042H118.784V392.909H125.867V394.174H117.225ZM131.811 384.196C131.811 385.405 132.324 386.831 133.575 387.702C134.797 386.845 135.31 385.426 135.31 384.196V382.679H136.884V384.196C136.877 385.735 137.629 387.309 139.357 388.019L138.514 389.185C137.312 388.672 136.526 387.73 136.09 386.585C135.654 387.773 134.839 388.813 133.553 389.354C132.261 388.813 131.446 387.752 131.017 386.557C130.567 387.688 129.773 388.658 128.593 389.185L127.778 388.019C129.457 387.281 130.244 385.651 130.251 384.196V382.679H131.811V384.196ZM127.778 392.796V391.518H139.357V392.796H127.778ZM150.824 381.723V394.426H149.25V381.723H150.824ZM140.299 390.927C143.629 389.347 145.161 387.196 145.442 384.309H140.945V383.072H147.03C147.03 386.852 145.561 390.063 141.114 392.178L140.299 390.927Z" fill="white"/>
<path d="M53.5665 409.461H46.5715C46.0197 409.461 45.5723 409.908 45.5723 410.46V415.956C45.5723 416.508 46.0197 416.956 46.5715 416.956H53.5665C54.1184 416.956 54.5658 416.508 54.5658 415.956V410.46C54.5658 409.908 54.1184 409.461 53.5665 409.461Z" stroke="#A5A5A5" stroke-width="1.16916"/>
<path d="M45.5723 411.559C45.5723 410.711 45.5723 410.288 45.8651 410.024C46.1578 409.761 46.6285 409.761 47.5708 409.761H52.5672C53.5096 409.761 53.9802 409.761 54.273 410.024C54.5658 410.288 54.5658 410.711 54.5658 411.559H45.5723Z" fill="#A5A5A5"/>
<path d="M47.5713 407.962V409.461M52.5677 407.962V409.461" stroke="#A5A5A5" stroke-width="1.16916" stroke-linecap="round"/>
<path d="M66.4086 408.054C68.4005 408.064 69.8338 409.034 69.8338 410.509C69.8338 411.906 68.5902 412.828 66.8091 412.949V414.915H70.7191V415.61H62.1402V414.915H65.9975V412.949C64.2269 412.823 62.9833 411.9 62.9833 410.509C62.9833 409.034 64.4219 408.064 66.4086 408.054ZM63.7843 410.509C63.779 411.589 64.8909 412.29 66.4086 412.301C67.9262 412.29 69.0329 411.589 69.0329 410.509C69.0329 409.45 67.9262 408.733 66.4086 408.739C64.8909 408.733 63.779 409.45 63.7843 410.509ZM79.0241 409.698V410.383H72.6268V407.6H73.4383V409.698H79.0241ZM71.4569 411.985V411.31H80.0359V411.985H71.4569ZM72.5319 413.481V412.828H78.9293V415.02H73.3856V416.021H79.2665V416.685H72.553V414.388H78.1177V413.481H72.5319Z" fill="#A5A5A5"/>
<g clip-path="url(#clip7_8691_12343)">
<g clip-path="url(#clip8_8691_12343)">
<path d="M50.068 425.05C53.0483 425.05 55.4641 427.466 55.4641 430.446C55.4641 433.426 53.0483 435.842 50.068 435.842C47.0877 435.842 44.6719 433.426 44.6719 430.446C44.6719 427.466 47.0877 425.05 50.068 425.05ZM50.068 426.129C48.9231 426.129 47.8251 426.584 47.0155 427.393C46.2059 428.203 45.7511 429.301 45.7511 430.446C45.7511 431.591 46.2059 432.689 47.0155 433.498C47.8251 434.308 48.9231 434.763 50.068 434.763C51.2129 434.763 52.3109 434.308 53.1205 433.498C53.9301 432.689 54.3849 431.591 54.3849 430.446C54.3849 429.301 53.9301 428.203 53.1205 427.393C52.3109 426.584 51.2129 426.129 50.068 426.129ZM50.068 427.208C50.2002 427.208 50.3277 427.257 50.4265 427.345C50.5253 427.432 50.5884 427.553 50.6038 427.685L50.6076 427.748V430.223L52.0683 431.683C52.1651 431.78 52.2213 431.911 52.2255 432.048C52.2297 432.185 52.1815 432.318 52.0909 432.421C52.0002 432.524 51.8738 432.588 51.7373 432.601C51.6008 432.614 51.4645 432.575 51.356 432.491L51.3053 432.446L49.6865 430.827C49.6026 430.743 49.5488 430.634 49.5332 430.517L49.5284 430.446V427.748C49.5284 427.605 49.5852 427.467 49.6864 427.366C49.7876 427.265 49.9249 427.208 50.068 427.208Z" fill="#A5A5A5"/>
</g>
</g>
<path d="M64.9752 434.051C63.2837 434.051 62.3035 432.628 62.3088 430.13C62.3035 427.653 63.2942 426.209 64.9752 426.209C66.651 426.209 67.6417 427.653 67.6417 430.13C67.6417 432.628 66.6668 434.051 64.9752 434.051ZM63.2257 430.13C63.231 432.106 63.8686 433.208 64.9752 433.208C66.0766 433.208 66.7195 432.106 66.7142 430.13C66.7195 428.154 66.0713 427.037 64.9752 427.032C63.8791 427.037 63.231 428.154 63.2257 430.13ZM71.4042 434.051C69.7126 434.051 68.7325 432.628 68.7378 430.13C68.7325 427.653 69.7232 426.209 71.4042 426.209C73.0799 426.209 74.0706 427.653 74.0706 430.13C74.0706 432.628 73.0958 434.051 71.4042 434.051ZM69.6547 430.13C69.6599 432.106 70.2976 433.208 71.4042 433.208C72.5056 433.208 73.1485 432.106 73.1432 430.13C73.1485 428.154 72.5003 427.037 71.4042 427.032C70.3081 427.037 69.6599 428.154 69.6547 430.13ZM75.9888 432.934C75.6199 432.928 75.3037 432.623 75.3143 432.248C75.3037 431.88 75.6199 431.574 75.9888 431.574C76.3629 431.574 76.6686 431.88 76.6633 432.248C76.6686 432.623 76.3629 432.928 75.9888 432.934ZM75.3143 428.012C75.3037 427.643 75.6199 427.337 75.9888 427.337C76.3629 427.337 76.6686 427.643 76.6633 428.012C76.6686 428.386 76.3629 428.691 75.9888 428.697C75.6199 428.691 75.3037 428.386 75.3143 428.012ZM80.5734 434.051C78.8818 434.051 77.9017 432.628 77.9069 430.13C77.9017 427.653 78.8924 426.209 80.5734 426.209C82.2491 426.209 83.2398 427.653 83.2398 430.13C83.2398 432.628 82.2649 434.051 80.5734 434.051ZM78.8239 430.13C78.8291 432.106 79.4668 433.208 80.5734 433.208C81.6747 433.208 82.3176 432.106 82.3124 430.13C82.3176 428.154 81.6695 427.037 80.5734 427.032C79.4773 427.037 78.8291 428.154 78.8239 430.13ZM87.0024 434.051C85.3108 434.051 84.3306 432.628 84.3359 430.13C84.3306 427.653 85.3213 426.209 87.0024 426.209C88.6781 426.209 89.6688 427.653 89.6688 430.13C89.6688 432.628 88.6939 434.051 87.0024 434.051ZM85.2528 430.13C85.2581 432.106 85.8957 433.208 87.0024 433.208C88.1037 433.208 88.7466 432.106 88.7413 430.13C88.7466 428.154 88.0984 427.037 87.0024 427.032C85.9063 427.037 85.2581 428.154 85.2528 430.13ZM91.5869 432.934C91.2181 432.928 90.9019 432.623 90.9124 432.248C90.9019 431.88 91.2181 431.574 91.5869 431.574C91.9611 431.574 92.2667 431.88 92.2615 432.248C92.2667 432.623 91.9611 432.928 91.5869 432.934ZM90.9124 428.012C90.9019 427.643 91.2181 427.337 91.5869 427.337C91.9611 427.337 92.2667 427.643 92.2615 428.012C92.2667 428.386 91.9611 428.691 91.5869 428.697C91.2181 428.691 90.9019 428.386 90.9124 428.012ZM96.1715 434.051C94.48 434.051 93.4998 432.628 93.5051 430.13C93.4998 427.653 94.4905 426.209 96.1715 426.209C97.8473 426.209 98.838 427.653 98.838 430.13C98.838 432.628 97.8631 434.051 96.1715 434.051ZM94.422 430.13C94.4273 432.106 95.0649 433.208 96.1715 433.208C97.2729 433.208 97.9158 432.106 97.9105 430.13C97.9158 428.154 97.2676 427.037 96.1715 427.032C95.0755 427.037 94.4273 428.154 94.422 430.13ZM102.601 434.051C100.909 434.051 99.9288 432.628 99.9341 430.13C99.9288 427.653 100.919 426.209 102.601 426.209C104.276 426.209 105.267 427.653 105.267 430.13C105.267 432.628 104.292 434.051 102.601 434.051ZM100.851 430.13C100.856 432.106 101.494 433.208 102.601 433.208C103.702 433.208 104.345 432.106 104.339 430.13C104.345 428.154 103.697 427.037 102.601 427.032C101.504 427.037 100.856 428.154 100.851 430.13Z" fill="#A5A5A5"/>
<rect x="243.43" y="420.553" width="19.7858" height="19.7858" rx="9.89288" fill="#06FFD2"/>
<path d="M253.291 436.086C251.267 436.086 249.813 435.004 249.75 433.388H251.028C251.099 434.357 252.061 434.962 253.277 434.962C254.619 434.962 255.588 434.238 255.596 433.177C255.588 432.067 254.703 431.287 253.122 431.28H252.293V430.17H253.122C254.359 430.17 255.223 429.474 255.216 428.427C255.223 427.408 254.478 426.734 253.319 426.727C252.23 426.734 251.239 427.331 251.183 428.329H249.961C250.024 426.713 251.527 425.631 253.333 425.631C255.272 425.631 256.453 426.903 256.439 428.357C256.453 429.516 255.778 430.359 254.71 430.662V430.732C256.038 430.936 256.839 431.884 256.832 433.177C256.839 434.849 255.321 436.086 253.291 436.086Z" fill="#333333"/>
<rect x="22.1885" y="741.246" width="95.3314" height="48.5651" rx="4.49677" fill="#656D77"/>
<path d="M68.2961 758.144V768.704H66.5413V764.973H64.5178V763.519H66.5413V762.16H64.5178V760.737H66.5413V758.144H68.2961ZM56.3446 765.369C56.8426 765.369 57.388 765.369 57.9571 765.361V760.626H56.7082V759.219H64.3123V760.626H63.0476V765.195C63.5851 765.155 64.1068 765.108 64.6126 765.053L64.6917 766.333C61.9805 766.768 58.8108 766.823 56.5343 766.823L56.3446 765.369ZM58.9056 772.151V767.882H60.6762V770.728H68.6597V772.151H58.9056ZM59.6644 765.337C60.2178 765.329 60.7869 765.305 61.356 765.282V760.626H59.6644V765.337ZM78.7458 758.998V760.405H75.7421C75.7659 762.08 76.999 763.693 79.2517 764.325L78.3664 765.701C76.7144 765.211 75.5208 764.175 74.8726 762.855C74.2245 764.278 73.0072 765.4 71.2998 765.938L70.4145 764.562C72.6989 763.891 73.932 762.183 73.9715 760.405H70.8888V758.998H78.7458ZM72.7701 772.261V766.523H74.509V767.993H80.469V766.523H82.2238V772.261H72.7701ZM74.509 770.839H80.469V769.353H74.509V770.839ZM80.4532 765.89V758.144H82.2238V765.89H80.4532Z" fill="#DFDFDF"/>
<rect x="124.715" y="741.246" width="149.293" height="48.5651" rx="4.49677" fill="url(#paint0_linear_8691_12343)"/>
<path d="M156.171 759.377V760.816H151.207V763.361H155.918V764.752H151.207V767.693C153.404 767.685 155.128 767.59 157.119 767.266L157.278 768.689C155.088 769.044 153.159 769.115 150.606 769.115H149.421V759.377H156.171ZM158.274 772.435V758.144H160.028V763.677H162.226V765.147H160.028V772.435H158.274ZM174.715 758.144V772.451H172.944V758.144H174.715ZM163.285 764.23C163.277 761.148 164.85 759.187 167.016 759.187C169.158 759.187 170.739 761.148 170.747 764.23C170.739 767.337 169.158 769.289 167.016 769.289C164.85 769.289 163.277 767.337 163.285 764.23ZM164.977 764.23C164.977 766.428 165.806 767.701 167.016 767.708C168.217 767.701 169.039 766.428 169.039 764.23C169.039 762.049 168.217 760.768 167.016 760.768C165.806 760.768 164.977 762.049 164.977 764.23ZM184.09 759.472V763.187H187.062V758.144H188.801V772.451H187.062V764.61H184.09V768.91H177.355V759.472H184.09ZM179.11 767.519H182.366V760.847H179.11V767.519ZM200.057 761.575C200.041 764.199 201.424 766.823 203.74 767.819L202.697 769.226C201.053 768.467 199.851 766.958 199.187 765.092C198.531 767.1 197.298 768.744 195.567 769.558L194.492 768.088C196.871 767.06 198.262 764.333 198.27 761.575V759.298H200.057V761.575ZM204.768 772.451V758.144H206.538V772.451H204.768ZM213.763 760.626C213.763 762.389 214.893 764.12 217.146 764.863L216.261 766.222C214.656 765.685 213.526 764.618 212.901 763.282C212.269 764.744 211.083 765.906 209.415 766.475L208.483 765.116C210.783 764.349 211.992 762.499 211.992 760.626V760.452H208.973V759.045H216.735V760.452H213.763V760.626ZM210.396 768.831V767.424H219.913V772.435H218.158V768.831H210.396ZM218.158 766.76V758.144H219.913V761.717H221.905V763.187H219.913V766.76H218.158ZM233.824 758.144V763.835H236.022V765.29H233.824V772.435H232.085V758.144H233.824ZM222.553 761.748V760.341H225.936V758.35H227.691V760.341H230.979V761.748H222.553ZM223.217 766.049C223.201 764.072 224.734 762.673 226.821 762.681C228.876 762.673 230.402 764.072 230.41 766.049C230.402 768.017 228.876 769.4 226.821 769.4C224.734 769.4 223.201 768.017 223.217 766.049ZM224.892 766.049C224.885 767.21 225.699 767.953 226.821 767.946C227.92 767.953 228.718 767.21 228.734 766.049C228.718 764.887 227.92 764.12 226.821 764.12C225.699 764.12 224.885 764.887 224.892 766.049ZM248.558 758.144V772.435H246.788V758.144H248.558ZM236.718 768.499C240.464 766.72 242.187 764.302 242.504 761.053H237.445V759.662H244.29C244.29 763.914 242.638 767.527 237.634 769.906L236.718 768.499Z" fill="#333333"/>
</g>
<defs>
<filter id="filter0_d_8691_12343" x="0.852304" y="0.14205" width="295.295" height="815.295" filterUnits="userSpaceOnUse" color-interpolation-filters="sRGB">
<feFlood flood-opacity="0" result="BackgroundImageFix"/>
<feColorMatrix in="SourceAlpha" type="matrix" values="0 0 0 0 0 0 0 0 0 0 0 0 0 0 0 0 0 0 127 0" result="hardAlpha"/>
<feOffset dy="4.28975"/>
<feGaussianBlur stdDeviation="2.57385"/>
<feComposite in2="hardAlpha" operator="out"/>
<feColorMatrix type="matrix" values="0 0 0 0 0 0 0 0 0 0 0 0 0 0 0 0 0 0 0.25 0"/>
<feBlend mode="normal" in2="BackgroundImageFix" result="effect1_dropShadow_8691_12343"/>
<feBlend mode="normal" in="SourceGraphic" in2="effect1_dropShadow_8691_12343" result="shape"/>
</filter>
<linearGradient id="paint0_linear_8691_12343" x1="124.715" y1="744.46" x2="277.497" y2="775.699" gradientUnits="userSpaceOnUse">
<stop stop-color="#00F2C6"/>
<stop offset="1" stop-color="#A5FFFD"/>
</linearGradient>
<clipPath id="clip0_8691_12343">
<rect width="21.5845" height="21.5845" fill="white" transform="translate(34.7793 188.52)"/>
</clipPath>
<clipPath id="clip1_8691_12343">
<rect width="16.1884" height="16.1884" fill="white" transform="translate(41.9746 233.487)"/>
</clipPath>
<clipPath id="clip2_8691_12343">
<rect width="16.1884" height="16.1884" fill="white" transform="translate(41.9746 233.487)"/>
</clipPath>
<clipPath id="clip3_8691_12343">
<rect width="21.5845" height="21.5845" fill="white" transform="translate(34.7793 282.951)"/>
</clipPath>
<clipPath id="clip4_8691_12343">
<rect width="16.1884" height="16.1884" fill="white" transform="translate(41.9746 327.919)"/>
</clipPath>
<clipPath id="clip5_8691_12343">
<rect width="16.1884" height="16.1884" fill="white" transform="translate(41.9746 327.919)"/>
</clipPath>
<clipPath id="clip6_8691_12343">
<rect width="21.5845" height="21.5845" fill="white" transform="translate(34.7793 377.384)"/>
</clipPath>
<clipPath id="clip7_8691_12343">
<rect width="16.1884" height="16.1884" fill="white" transform="translate(41.9746 422.352)"/>
</clipPath>
<clipPath id="clip8_8691_12343">
<rect width="16.1884" height="16.1884" fill="white" transform="translate(41.9746 422.352)"/>
</clipPath>
</defs>
</svg>
